<svg width="160" height="80" viewBox="0 0 160 80" fill="none" xmlns="http://www.w3.org/2000/svg">
  <path d="M50.285.364c-4.026 1.073-6.8 2.335-9.865 4.536-3.786 2.684-8.399 7.864-10.185 11.434-.507 1.047-1.36 2.362-1.84 2.926-.507.537-.907 1.154-.907 1.342s-.453.886-1.013 1.557c-.533.67-1.68 2.657-2.533 4.428-.88 1.745-2.026 4.107-2.586 5.208l-1.013 2.013-2.373.16c-1.28.108-3.52.189-4.932.215-2.08.027-2.613.108-2.613.403 0 .456 1.84 2.013 3.092 2.657 1.014.537 4.213 1.1 4.8.886.72-.295.24 1.691-1.387 5.744-.826 1.986-1.946 4.939-2.533 6.523-1.146 3.194-1.626 4.24-2.533 5.422-.32.429-.693 1.154-.8 1.61-.08.43-.453 1.1-.773 1.476-.346.376-.853 1.154-1.146 1.745-.747 1.503-6.586 7.462-7.999 8.16-1.2.617-1.6 1.583-.506 1.261.32-.107 1.146-.349 1.84-.537 1.759-.483 2.985-1.422 6.878-5.18 3.973-3.865 6.346-6.79 7.972-9.824.64-1.208 1.493-2.684 1.92-3.275s1.013-1.852 1.306-2.818 1.413-3.919 2.48-6.576c1.92-4.75 1.973-4.831 2.88-5.046.506-.108 2.159-.483 3.705-.832 1.547-.35 3.413-.886 4.133-1.181 2.106-.86 4.666-1.584 4.666-1.315 0 .563-1.866 4.509-2.826 5.985-1.227 1.825-1.627 2.738-2.88 6.415a265 265 0 0 1-1.733 5.046c-.933 2.577-1.013 4.027-.213 4.16.826.162 3.466-.992 4.56-1.959.56-.483 1.306-.966 1.652-1.047.373-.107 1.493-.858 2.533-1.717 1.706-1.396 1.813-1.53 1.2-1.61-.373-.054-1.44.294-2.4.724-2.24 1.1-2.586 1.074-2.373-.054.294-1.718 1.2-4.08 2.72-7.14.853-1.717 1.626-3.462 1.733-3.892s.533-1.288.933-1.878c1.04-1.53 2.693-5.073 2.693-5.798 0-.59-.08-.59-1.413-.456-.773.107-2.133.43-3.013.724-.853.322-2.586.671-3.813.832-1.226.135-2.426.376-2.666.51-.266.135-1.52.296-2.853.403-1.306.08-2.773.215-3.28.295-.879.134-.879.134-.692-.617.08-.403.773-2.094 1.493-3.731s1.306-3.22 1.306-3.516.347-1.208.773-2.013c.427-.806.907-1.96 1.067-2.55.16-.618.746-1.637 1.28-2.282.506-.644 1.36-1.986 1.84-3.006 1.68-3.436 5.598-7.945 9.571-10.978 2.4-1.825 3.893-2.496 6.799-3.033 6.026-1.1 9.225.242 9.172 3.865-.027 4.429-4.106 8.106-11.012 9.904-3.546.913-5.199.725-7.545-.832-.427-.268-.747-.375-.747-.241 0 .16.773.67 1.707 1.154 1.68.859 1.76.859 4.772.778l3.04-.107 2.853-1.422C60.736 10.348 63.163 3.45 57.483.578c-1.36-.67-5.039-.778-7.198-.214m62.629 8.589c-1.146.563-2.346 1.288-2.639 1.583-3.466 3.517-4.159 4.59-8.345 12.938-1.653 3.328-2.613 5.53-2.827 6.71-.773 3.731-2.24 7.73-2.906 7.945-.266.08-1.333.161-2.346.188-1.253.027-1.84.134-1.84.349 0 .537 1.547 1.691 2.746 2.04.614.16 1.147.349 1.2.376.053.026-.106.51-.32 1.047-.24.563-.426 1.288-.426 1.637 0 .805-1.2 4.939-1.707 5.985-.24.43-.666 1.718-.986 2.9-.293 1.153-.907 2.63-1.307 3.3-.426.672-.986 1.8-1.28 2.55-.266.725-.88 1.933-1.333 2.658-.48.752-.853 1.503-.853 1.69 0 .484-5.252 5.799-6.345 6.416-.96.564-.987 1.1-.027.966 1.653-.215 5.092-2.764 7.865-5.77 2.107-2.282 5.013-6.255 5.626-7.704.293-.671.96-1.825 1.466-2.55 1.414-1.986 2-3.301 2.747-6.147.373-1.395.906-3.328 1.2-4.24.293-.94.533-1.906.533-2.148 0-.724.693-1.208 2.053-1.422 2.453-.35 12.931-3.731 13.411-4.322.267-.322.213-.376-.427-.376-.426 0-1.439.188-2.239.403-.8.242-3.386.644-5.733.94s-4.612.617-5.012.697l-.773.161.186-1.583c.24-1.933.827-3.785 4.053-12.428 3.279-8.83 4.399-11.032 6.905-13.5 1.387-1.37 2.24-1.8 4.186-2.04l1.653-.216-2.026-.053c-1.813-.027-2.186.053-4.133 1.02m19.464 2.952c-4.026 3.006-9.119 10.334-10.772 15.514-.4 1.316-1.199 3.436-1.733 4.724-.533 1.289-1.173 3.302-1.386 4.43-.24 1.127-.933 3.22-1.573 4.643-.773 1.718-1.227 3.14-1.333 4.24l-.187 1.638h.853c.453 0 1.227-.161 1.707-.349.48-.215 1.626-.456 2.586-.564 2.719-.295 3.519-.483 3.253-.751-.107-.108-.854-.295-1.6-.403l-1.387-.16v-1.101c0-1.772.774-5.986 1.627-8.938.426-1.504.906-3.356 1.04-4.08.133-.725.56-1.96.96-2.765.373-.778 1.039-2.55 1.466-3.892.427-1.476 1.066-2.899 1.546-3.49.427-.563.88-1.368.987-1.77.08-.43.613-1.209 1.173-1.745.533-.564 1.306-1.557 1.68-2.255.746-1.315 2.079-2.818 2.986-3.355.507-.296.507-.322-.16-.322-.373-.027-1.173.322-1.733.751" fill="#526478"/>
  <path d="M46.046 20.387c-1.547.43-2.267 1.074-3.227 2.899-.4.778-1.013 1.771-1.36 2.255-.346.456-.64 1.046-.64 1.288 0 .376.16.43 1.014.268 1.306-.241 2.346-.993 3.653-2.603.586-.752 1.76-1.852 2.613-2.443 1.893-1.369 2.026-2.066.4-2.04-.64 0-1.734.188-2.454.376m111.315 8.965c-.959 1.02-2.666 2.818-3.759 4.026s-4.346 4.563-7.199 7.435c-4.346 4.402-5.466 5.395-6.879 6.066-.906.457-2.133.86-2.693.94-.879.134-1.173.027-1.759-.564-.64-.644-.72-.886-.56-1.852.106-.617.693-2.228 1.333-3.543.64-1.342 1.253-2.684 1.36-3.033.08-.322.586-1.127 1.066-1.798.507-.645 1.173-1.691 1.493-2.336s.96-1.637 1.44-2.227c.827-1.02 1.466-2.067 1.466-2.39 0-.08-.373-.16-.799-.16-.96 0-2.187.59-4.96 2.415-1.119.752-2.159 1.342-2.266 1.342-.8 0-2.613 1.208-2.906 1.906-.453 1.074-.213 1.208 1.066.537.587-.295 1.067-.456 1.067-.295 0 .134-.773 1.369-1.707 2.738-2.399 3.57-2.879 4.616-3.012 6.656-.134 2.04.4 3.167 1.813 3.892 2.639 1.396 8.718.161 11.305-2.254 1.173-1.101 4.212-3.356 3.972-2.926-.106.188-.666 1.047-1.2 1.906-.56.858-1.199 2.147-1.439 2.872-.267.832-.72 1.53-1.174 1.878-.479.323-1.306 1.638-2.186 3.41-.8 1.61-2 3.65-2.693 4.535-.693.913-1.679 2.362-2.239 3.221-1.947 3.14-2.373 3.65-5.813 6.872-3.786 3.543-6.292 5.314-10.451 7.408-4.026 2.013-6.079 2.603-9.439 2.603-2.479 0-3.066-.107-5.172-.858-2.64-.967-3.466-1.584-4.186-3.168-1.173-2.55-.32-5.636 2.346-8.481 2.533-2.712 7.439-5.96 10.558-6.98 3.066-1.02 7.199-1.476 9.705-1.073.987.161 1.813.242 1.867.188.053-.027-.64-.295-1.52-.564-2.453-.751-7.279-.456-10.665.645-1.386.456-3.146 1.18-3.919 1.583-3.12 1.664-7.332 5.583-9.039 8.402-.853 1.449-1.04 2.013-1.12 3.489-.133 2.013.374 3.274 1.947 5.046 1.28 1.396 2.773 2.094 5.599 2.496 3.839.564 7.065.43 9.865-.43 5.092-1.53 11.518-5.314 16.797-9.877 4.399-3.811 9.145-9.287 10.265-11.917.267-.618.8-1.477 1.173-1.88 1.04-1.18 4.08-6.119 5.493-8.964.32-.671.933-1.638 1.333-2.148.88-1.127 1.759-2.952 2.133-4.428.133-.59.693-1.799 1.226-2.684a51 51 0 0 0 1.6-2.872c.347-.698.88-1.396 1.146-1.53.267-.161.64-.645.8-1.1.134-.457.693-1.343 1.227-1.987.506-.644.933-1.342.933-1.61 0-.886-.933-.376-2.64 1.422m-74.014-.51c-3.733.483-10.372 4.214-13.225 7.462-.613.698-1.386 1.825-1.733 2.523-.693 1.342-.88 1.476-1.386.966-.24-.241-.48-.241-1.013 0-.853.403-.747.806.453 1.61.747.51.933.86 1.093 1.96.32 2.013 2.187 4.724 3.92 5.583 2.64 1.369 8.238 1.288 11.251-.161 2.026-.966 5.84-3.758 5.84-4.295 0-.67-1.147-.349-2.534.725-1.813 1.396-3.252 1.906-6.052 2.067-3.546.242-5.226-.644-6.932-3.624l-.454-.778 2.32-.161c4.346-.322 8.745-2.04 11.092-4.348 1.573-1.53 2.64-3.839 2.772-5.986.134-2.013-.186-2.818-1.413-3.409-.933-.43-1.466-.456-3.999-.134m1.04 2.845c.693.698.533 2.55-.293 3.812-1.413 2.066-3.36 3.865-5.146 4.724-1.44.67-2.133.832-4.24.912l-2.506.135.187-1.316c.48-3.57 3.386-6.63 7.892-8.32 1.36-.484 3.6-.484 4.106.053m-29.009-1.906c-.426.215-1.226.832-1.786 1.342-1.28 1.155-3.173 2.12-5.28 2.711-.906.269-1.626.564-1.626.698 0 .35 1.413.242 2.746-.214.667-.215 1.547-.376 1.974-.323.666.081.746.188.72 1.02 0 .537-.454 1.906-.987 3.087-.507 1.181-1.387 3.597-1.92 5.368-.56 1.772-1.52 4.268-2.16 5.53-1.306 2.55-1.706 3.999-1.173 3.999.72 0 3.627-1.181 4.213-1.718.827-.751 1.653-2.416 2.693-5.53.48-1.395 1.226-3.113 1.68-3.81 1.253-2.014 4.506-4.913 6.772-6.013 1.84-.94 2.08-.993 3.813-.832 2.026.161 2.186.107 3.332-1.45.88-1.207.88-1.503-.026-2.442-1.733-1.825-4.88-.43-9.252 4.08-1.573 1.61-3.093 3.06-3.36 3.22-.506.27-.506.189.107-1.449.373-.966.773-1.96.907-2.227.426-.886 1.173-4.054 1.066-4.67-.106-.806-1.306-.994-2.453-.377" fill="#526478"/>
</svg>
