<svg width="180" height="88" viewBox="0 0 180 88" fill="none" xmlns="http://www.w3.org/2000/svg">
  <path d="M81.881 41.41s13.715.306 13.897.275c5.747 0 10.876-4.148 10.876-10.536 0-5.646-4.09-10.402-11.924-10.402-.67 0-2.724 0-4.945-.002l-1.432-2.364h5.33c2.31 0 5.173-1.713 6.639-4.4l1.652-2.64 1.061 5.833c-.584.67-1.197 1.288-1.68 1.778 1.586.352 3.499 1.352 5.513 3.025 2.016 1.67 4.111 5.624 4.111 9.173 0 5.666-3.743 13.107-13.074 13.107-2.198 0-22.131-.152-22.131-.152v-1.99c.642-.181 1.923-1.038 1.923-2.965l-.01-34.217c0-1.238-.85-2.461-1.913-2.783V.132C76.109.132 91.789 0 92.827 0s4.187.012 6.329.919a10.14 10.14 0 0 1 3.703 2.651l-5.705-.001a8 8 0 0 0-3.88-1.021H81.86z" fill="#526478"/>
  <path d="M98.952 5.057c1.162 0 8.934.015 9.188.015v2.126c-1.617.518-2.105 1.468-1.586 3.454l2.109 11.037a9 9 0 0 0-.866-.836 20 20 0 0 0-2.987-2.072l-2.099-11.505-3.75 6.144c-1.239 2.14-3.55 3.506-5.278 3.506h-1.729zM83.313 12.54v7.934l5.792 9.374 4.62-7.666H90.43l-.808 1.284-.741-1.284zm-7.095-7.468h-4.133v2.155c1.71.672 1.97 1.59 1.745 2.681 0 0-6.675 35.062-7 36.55s-1.612 1.958-2.314 1.989v2.163h8.38v-2.134c-1.922 0-2.64-1.987-2.334-3.332.132-.6 3.892-21.41 5.64-31.129zm33.48 40.468c-.006 1.969-1.145 2.876-2.427 2.876v2.148h8.395V48.43c-1.114-.335-2.092-.658-2.457-2.98l-1.727-9.029c-.578 1.601-1.437 3.18-2.616 4.57zM10.103 76.104c.664-.615 1.02-1.604 1.02-2.738 0-1.848-1.57-3.564-3.868-3.564H0v.93c.565 0 1.103.349 1.103 1.034l.004 13.812c0 .824-.571 1.058-1.032 1.113v.88h8.217c3.387 0 5.524-3.416 5.524-5.836-.001-2.313-1.361-4.3-3.713-5.63m-3.79-5.334c1.02 0 1.866.299 2.29.862.656.741.83 1.533.467 2.541-.175.431-.78 1.185-1.547 1.394-.302.07-.654.125-1.184.125H2.844L2.83 70.77zm.834 15.63c-.065.013-4.316 0-4.316 0v-9.582l4.672.004c1.933 0 4.391 2.093 4.391 4.73 0 2.636-2.427 4.847-4.747 4.847m19.332-.62-5.631-17.082-.874 2.658.323.908L15.8 85.943c-.249.719-.906.748-1.327.748v.88h3.609v-.88c-.319-.005-1.117-.494-.848-1.359l.297-.88 6.78-.016.323 1.005c.13.389-.14 1.03-.696 1.25v.88h3.916v-.88c-.922 0-1.132-.229-1.374-.91m-8.544-2.56 2.962-9.076 2.993 9.06zm21.322-13.419h3.358v.93c-.612 0-1.057.5-1.057.997v13.95c0 .421.313 1.013 1.186 1.013v.88h-2.329l-9.062-14.254v12.35c0 .698.562 1.024 1.22 1.024v.88h-3.355v-.88c.562 0 1.013-.387 1.013-.905l-.02-14.047c0-.482-.279-.977-1.047-1.006h-.15v-.93h2.43l8.949 14.05.02-12.156c0-.52-.425-.964-1.157-.964zm15.932-.106a9.3 9.3 0 0 0-2.22-.269c-5.11 0-9.255 4.152-9.255 9.271s4.145 9.272 9.256 9.272a9.2 9.2 0 0 0 5.745-2.002l-.86-1.077a7.92 7.92 0 0 1-5.016 1.781c-3.796 0-7.27-3.57-7.27-7.974 0-4.403 3.495-7.974 7.248-7.974a7.95 7.95 0 0 1 4.952 1.723l.873-1.118-3.446-3.068-.647.81z" fill="#526478"/>
  <path d="M67.676 69.426c-5.2 0-9.417 4.144-9.417 9.255 0 5.113 4.216 9.255 9.417 9.255s9.418-4.142 9.418-9.255c0-5.11-4.217-9.255-9.418-9.255m0 17.214c-4.197 0-7.6-3.563-7.6-7.959 0-4.394 3.403-7.958 7.6-7.958s7.6 3.564 7.6 7.958c0 4.396-3.403 7.959-7.6 7.959m90.422-16.944a9.3 9.3 0 0 0-2.22-.269c-5.111 0-9.256 4.152-9.256 9.271s4.145 9.272 9.256 9.272a9.2 9.2 0 0 0 5.745-2.002l-.859-1.077a7.92 7.92 0 0 1-5.016 1.781c-3.796 0-7.271-3.57-7.271-7.974 0-4.403 3.496-7.974 7.248-7.974 1.869 0 3.59.644 4.952 1.723l.873-1.118-3.446-3.068-.646.81z" fill="#526478"/>
  <path d="M170.584 69.426c-5.201 0-9.417 4.144-9.417 9.255 0 5.113 4.216 9.255 9.417 9.255S180 83.794 180 78.681c0-5.11-4.215-9.255-9.416-9.255m0 17.214c-4.198 0-7.6-3.563-7.6-7.959 0-4.394 3.402-7.958 7.6-7.958 4.196 0 7.6 3.564 7.6 7.958-.001 4.396-3.405 7.959-7.6 7.959M84.255 74.46h-3.931v.781a.64.64 0 0 1 .65.605v5.51c0 .303-.345.554-.65.554v.764h4.07c1.986 0 3.973-1.806 3.973-4.166s-2.021-4.049-4.112-4.049m-.52 7.415h-1.542v-6.591h1.542c1.64 0 3.323 1.188 3.323 3.22s-1.446 3.371-3.323 3.371m25.667-12.072h2.595v.93c-.58 0-1.171.526-1.017 1.208l2.872 13.954c.151.563.56.797 1.1.797v.88h-3.948v-.88c.981 0 1.246-.724 1.165-1.1-.173-.798-2.719-13.052-2.719-13.052l-3.107 6.57-3.365-6.57-2.287 13.01c-.065.475.323 1.142.992 1.142v.88H98.08v-.88c.627 0 1.294-.083 1.446-.818l2.417-13.999c.113-.648-.445-1.069-.885-1.142v-.93h2.251l3.164 6.182zm6.882 0h7.816l2.503 1.441-1.036.734-1.597-.93h-4.918v4.561h1.381c.496 0 1.035-.26 1.035-1.08h.885v3.566h-.711c0-.498-.345-1.19-1.015-1.19h-1.596v9.363h6.051l2.405-1.387 1.188.67-3.474 2.022h-8.916v-.88c.409 0 1.063-.258 1.063-.992V71.697c0-.422-.351-.965-1.063-.965zm13.83.93c.008-.002-.203-.027-.218 0v-.93h3.826v.93c-.429.116-.842.749-.604 1.353l1.963 4.409 2.038-4.345c.291-.656-.128-1.302-.636-1.417v-.93h3.603v.93h-.5c-.516 0-.784.25-.968.683l-2.976 6.331 3.742 8.376c.236.572.787.57 1.241.57v.879h-3.948v-.88c.367 0 .863-.71.604-1.294l-2.524-5.705-2.589 5.554c-.341.778.388 1.445.712 1.445v.88h-3.538v-.88c.544 0 1.013-.019 1.316-.623l3.548-7.63-3.156-7.074c-.194-.421-.467-.632-.936-.632m11.58 0v-.93h3.941v.93c-.496 0-1.137.306-1.137 1.012v13.919c0 .49.415 1.029 1.137 1.029v.88h-3.941v-.88c.635 0 1.12-.364 1.12-1.03V71.745c0-.457-.365-1.012-1.12-1.012m-52.778 4.503c.494 0 .674.333.674.625v5.43c0 .413-.34.615-.674.615v.762h4.889l2.25-1.305-.728-.42-1.667.955h-2.937v-4.23h.874c.356 0 .599.332.599.616v.162h.541v-2.148h-.55v.162a.58.58 0 0 1-.59.609h-.866v-1.833h2.54l.98.576.63-.47-1.504-.883h-4.46m34.703-10.235-4.371 2.54.478.824 4.37-2.54z" fill="#526478"/>
</svg>
