<svg width="276" height="69" viewBox="0 0 276 69" fill="none" xmlns="http://www.w3.org/2000/svg">
  <path d="M21.727.057c.1.063.755.462 1.46.898C29.4 4.771 34.002 9.684 36.782 15.457c.855 1.783 1.81 4.626 2.176 6.471 1.547 7.682-1.887 16.697-10 26.31-2.553 3.018-6.452 6.784-9.747 9.403C14.068 61.718 6.684 66.107.66 68.663c-.415.187-.705.325-.654.337.188 0 3.773-1.097 5.899-1.82 9.961-3.392 18.854-8.243 25.708-14.016 2-1.696 5.082-4.813 6.591-6.671 3.799-4.701 6.038-9.265 7.044-14.34.39-1.932.478-5.337.2-7.332-1.307-9.264-8.011-17.232-19.13-22.781-1.849-.91-5.144-2.344-4.59-1.983m58.046 17.944c-1.106.05-2.54.1-3.17.112l-1.169.012v35.538h6.54c3.749 0 7.07-.063 7.773-.137 2.768-.3 5.887-1.16 7.698-2.12 4.088-2.195 7.157-6.584 8.301-11.92.39-1.771.491-5.562.202-7.52-.667-4.501-2.164-7.718-4.792-10.287-2.076-2.032-3.837-2.905-7.17-3.516-1.144-.212-10.628-.325-14.213-.162m11.132 2.917c2.78.424 4.427 1.21 6.163 2.943 2.427 2.407 3.761 5.586 4.176 9.888.402 4.252-.768 9.153-2.931 12.245-1.887 2.718-4.654 4.102-9.32 4.676-.83.1-5.622.162-9.056.125-.214 0-.226-.798-.226-14.963V20.88l1.232-.037c4.138-.125 8.842-.088 9.962.074M147 18.013a574 574 0 0 0-4.364.1l-.793.012v35.538h4.277V38.575l2.515-.025c1.384-.012 2.604-.025 2.717-.025.151-.012 1.887 2.481 5.321 7.606 2.804 4.202 5.194 7.744 5.295 7.88.188.25.188.25 2.377-.049a99 99 0 0 0 2.276-.324c.051-.025-2.44-3.604-5.534-7.956-3.094-4.351-5.609-7.955-5.584-7.992.025-.038.365-.137.767-.225 2.377-.524 5.559-2.905 6.679-4.988 1.66-3.067 1.648-6.708-.013-9.925-.679-1.322-2.188-2.843-3.358-3.404-2.189-1.06-4.993-1.31-12.578-1.135m7.484 3.167c1.195.25 2.578.935 3.233 1.584.704.698 1.32 1.87 1.559 2.93.101.486.176 1.509.176 2.42 0 1.271-.05 1.757-.289 2.568-.969 3.33-3.434 4.788-8.452 4.988-1.032.037-2.491.024-3.233-.025l-1.358-.088V21.118l.289-.062c.994-.225 6.805-.138 8.075.124m22.829-3.267c-.051.05-3.962.2-5.12.212h-.415v35.538h6.264c3.434 0 6.88-.063 7.635-.125 2.981-.274 5.874-1.022 7.911-2.057 4.163-2.108 7.333-6.522 8.477-11.796.982-4.464.403-9.714-1.484-13.791-1.672-3.579-4.477-6.135-7.898-7.195-2.239-.698-2.629-.723-9.207-.786-3.359-.025-6.138-.025-6.163 0m10.263 3.018c2.654.449 4.754 1.521 6.226 3.155 4.339 4.838 5.157 13.728 1.849 20.287-1.774 3.504-4.226 5.187-8.842 6.073-1.22.237-1.95.274-6.063.311l-4.691.063V20.88l1.107-.05c.603-.012 2.943-.05 5.194-.062 3.208-.025 4.352.012 5.22.162m-67.832.025A13933 13933 0 0 1 106.3 51.082c-.579 1.297-1.057 2.406-1.057 2.469 0 .074.881.1 2.151.087l2.151-.038 4.553-11.409h14.854l4.025 11.472h2.302c1.258 0 2.289-.038 2.276-.1 0-.05-2.955-8.03-6.565-17.731l-6.578-17.644-3.409-.075zm5.157 10.013c1.56 4.352 2.881 8.017 2.918 8.13.088.212-.264.224-6.226.224s-6.314-.012-6.238-.224c.578-1.584 6.578-16.198 6.628-16.136.038.05 1.346 3.654 2.918 8.006m82.095 22.694h22.137V50.42l-8.93-.025-8.931-.038V36.455c0-.087 2.705-.125 7.861-.125h7.862v-3.117h-7.836c-4.315 0-7.874-.025-7.899-.05s-.038-2.718-.013-5.985l.025-5.935h17.735v-3.118h-22.011zm27.419 0h3.811l-.088-2.706c-.125-4.065-.188-6.322-.264-9.015-.037-1.335-.1-3.28-.126-4.302-.163-5.163-.339-12.794-.301-12.831.025-.025 5.534 6.546 12.238 14.601 6.716 8.043 12.263 14.69 12.351 14.764.138.112 1.421-.274 1.786-.549.113-.087.151-3.803.151-17.806V18.125h-3.924l.075 1.77c.038.986.101 2.956.139 4.403.037 1.434.088 3.454.125 4.489.038 1.022.088 2.93.126 4.24.038 1.296.126 4.301.189 6.67.151 5.212.176 6.36.113 6.41-.025.024-5.27-6.26-11.66-13.966l-11.609-14.016h-3.132z" fill="#526478"/>
  <path d="M69.536 10.348c-6.792.611-13.785 2.22-19.621 4.489-2.201.86-6.025 2.569-6.34 2.855-.113.1-.402.262-.64.375a9 9 0 0 0-.818.448 7 7 0 0 1-.692.4c-.176.087-.968.585-1.761 1.11-8.98 5.922-13.207 13.566-11.169 20.162.34 1.122 1.233 3.03 1.383 2.943.164-.1 2.353-3.442 3.032-4.626.591-1.023.591-1.035.591-2.195 0-2.082.453-3.965 1.421-5.935 2.805-5.724 9.308-11.01 18.452-15.013 5.081-2.22 11.533-4.04 17.344-4.888.73-.113 1.346-.225 1.384-.25.075-.087-.553-.05-2.566.125M40.582 48.354c-.503.562-1.207 1.347-1.572 1.746-.755.835-.843.723.968 1.496 1.585.699 3.51 1.347 5.32 1.82l1.41.363 1.345-1.422c.755-.798 1.371-1.484 1.397-1.534.012-.05-.655-.336-1.485-.623-1.861-.649-3.874-1.534-5.245-2.294-.566-.325-1.081-.587-1.132-.587-.05.013-.515.474-1.006 1.035m229.959 3.641q1.375 0 2.686.703a4.97 4.97 0 0 1 2.042 2.003q.73 1.299.731 2.713 0 1.4-.724 2.692a5.05 5.05 0 0 1-2.02 2.01 5.6 5.6 0 0 1-2.715.71 5.6 5.6 0 0 1-2.723-.71 5.1 5.1 0 0 1-2.02-2.01q-.724-1.293-.724-2.692 0-1.414.732-2.713a5 5 0 0 1 2.049-2.003q1.31-.703 2.686-.703m0 .897q-1.152 0-2.245.589a4.2 4.2 0 0 0-1.701 1.672 4.5 4.5 0 0 0-.616 2.261q0 1.17.601 2.247.609 1.07 1.695 1.672a4.65 4.65 0 0 0 2.266.596q1.18 0 2.266-.596a4.3 4.3 0 0 0 1.687-1.672 4.54 4.54 0 0 0 .601-2.247 4.5 4.5 0 0 0-.615-2.261 4.14 4.14 0 0 0-1.702-1.672q-1.094-.59-2.237-.589m-2.397 7.515V54.58h2.02q1.036 0 1.499.165.463.158.739.56t.275.854q0 .64-.464 1.112-.456.474-1.216.532.312.13.5.308.354.345.868 1.156l.717 1.141h-1.158l-.522-.918q-.616-1.084-.991-1.357-.261-.201-.761-.201h-.557v2.476zm.949-3.28h1.151q.825 0 1.122-.244a.79.79 0 0 0 .304-.646.77.77 0 0 0-.144-.46.86.86 0 0 0-.406-.308q-.254-.1-.948-.1h-1.079z" fill="#526478"/>
</svg>
