<svg width="80" height="79" viewBox="0 0 80 79" fill="none" xmlns="http://www.w3.org/2000/svg">
  <path d="M35.515 77.648c-8.449-22.8-16.72-45.673-25.214-68.452-.783-2.125-2.184-4.079-4.333-4.943C4.088 3.667 2.2 3.098.328 2.492-.61.2.57-.233 2.532.099h25.89c1.257 3.643-3.683 2.931-5.9 4.233-1.729.654-1.155 3.003-.74 4.394 6.32 18.392 13.05 36.64 19.513 54.98 7.127-18.646 14.61-37.16 21.518-55.889.448-1.314.405-3.288-1.297-3.56-2.393-1.065-6.54-.559-5.861-4.158h24.107c.703 2.096-.203 2.866-2.15 3.114-2.497.867-5.72 1.198-6.879 3.97C64.78 20.275 59.6 33.717 54 46.968c-4.248 10.237-8.485 20.478-12.725 30.72-1.832-.01-4.074.374-5.589.367l-.163-.389zM31.6 18.472c-.847-.17-1.7-.308-2.55-.458-.197-.588.062-1.203.098-1.798.088-.572.17-1.145.271-1.715.75-.402.648.604.81 1.053.132.57.274 1.138.435 1.7 1.125.27 2.335.522 3.458.1 3.316-1.715.717-4.055-1.56-5.167-1.322-.586-2.678-1.254-3.273-2.647-1.15-4.406 3.658-5.684 7.068-4.973.524.096 1.342.192.978.904-.137.824-.3 1.643-.447 2.466-.64.203-.646-.448-.752-.907l-.341-1.457c-1.635-.544-2.968-.5-4.226.684-.329.72-.46 1.615-.121 2.35.433.71 1.16 1.137 1.88 1.505 2.474.91 5.831 3.197 4.099 6.17-1.244 1.984-3.672 2.297-5.827 2.19m12.375-.327c-.146-.208-.044-.305.18-.347.364-.207.852-.11 1.148-.434.183-.1.153-.29.148-.47V5.603L44.02 5.2c.05-.159.037-.4.126-.507 1.588.064 3.179.052 4.768.077-.041.149.09.423-.083.476l-1.255.421v11.821l1.102.373.101.526h-4.711zm8.151-.43c-1.434-2.079-3.005-4.059-4.416-6.153-.206-.17.104-.299.19-.445 1.453-1.622 2.968-3.192 4.331-4.893.279-.264.421-.694-.105-.732-.195-.083-.464-.093-.62-.21.01-.154-.168-.463-.033-.512h4.366v.633c-.686-.053-1.254.41-1.832.713l-4.289 4.865 4.686 6.425 1.592.532c-.05.132.107.471-.095.45h-3.324z" fill="#526478"/>
</svg>
