<svg width="150" height="61" viewBox="0 0 150 61" fill="none" xmlns="http://www.w3.org/2000/svg"><path d="M133.144 39.34c-8.241 0-14.949-6.732-14.949-15.005 0-4.463 1.498-8.564 4.218-11.545 2.929-3.212 7.003-4.908 11.78-4.908 9.201 0 15.628 6.814 15.628 16.572V38.79h-6.818v-2.242c-1.899 1.21-5.015 2.768-9.859 2.792m1.05-25.047c-5.406 0-9.18 3.857-9.18 9.38 0 5.621 3.554 9.255 9.056 9.255 1.205 0 2.636-.31 4.139-.897 1.741-.742 4.694-2.86 4.694-8.61 0-6.306-4.374-9.128-8.709-9.128M99.419 39.39c-9.567 0-15.996-6.244-15.996-15.537 0-10.452 7.521-15.92 14.949-15.92 5.045 0 8.155 1.597 9.859 2.76V0h6.815v22.065c0 11.615-6.938 17.312-15.627 17.326m-.121-25.048c-5.587 0-9.058 3.645-9.058 9.511 0 5.46 3.69 9.126 9.18 9.126 4.335 0 8.71-3.006 8.71-9.722 0-5.249-3.633-8.915-8.832-8.915M73.333 38.791h-6.816V8.535h6.57v3.05c1.798-1.894 4.168-3.058 7.453-3.058h2.539v6.411H80.97c-5.21 0-7.638 3.569-7.638 10.583zm-25.127.6c-3.72 0-7.102-1.305-9.523-3.674-2.464-2.414-3.82-5.838-3.82-9.646V8.536h6.816V26.07c0 3.874 2.868 6.909 6.527 6.909s6.527-3.035 6.527-6.909V8.536h6.816V26.07c0 3.807-1.357 7.232-3.82 9.646-2.42 2.37-5.804 3.674-9.523 3.674m-32.58 0C6.94 39.378.002 33.682 0 22.066V.002h6.816v10.694c1.706-1.163 4.815-2.76 9.86-2.76 7.427 0 14.947 5.468 14.947 15.92 0 9.294-6.429 15.535-15.997 15.535m.123-25.046c-5.2 0-8.834 3.665-8.834 8.914 0 6.717 4.375 9.721 8.712 9.721 5.49 0 9.18-3.665 9.18-9.124 0-5.866-3.471-9.51-9.058-9.51" fill="#526478"/><path d="M143.927 41.659c1.952 0 1.952 2.473 1.952 5.255h-4.251c0-2.524.106-5.255 2.299-5.255m.949 11.928c-3.01 0-3.248-2.705-3.248-5.28v-.645H150c0-3.994-1.559-6.905-5.969-6.905-4.199 0-6.523 2.86-6.523 6.853 0 4.02 2.324 6.879 6.523 6.879 3.3 0 5.363-1.674 5.704-4.844h-1.162c-.053 2.036-1.4 3.942-3.697 3.942m-9.892-2.01V36.246h-5.757v.75h.897c.793 0 1.057.333 1.057 1.751v12.832c0 1.418-.264 1.751-1.057 1.751h-.897v.748h7.712v-.748h-.9c-.791 0-1.055-.333-1.055-1.751m-5.392-10.41h-4.223v.75h.658c.476 0 .873.127.873.821 0 .18-.081.518-.239.955l-2.35 6.081h-.053l-2.56-6.595c-.108-.311-.16-.52-.16-.618 0-.62.635-.645 1.189-.645h.475v-.749h-10.078v-4.945h-.792c-.582 2.317-2.246 4.792-4.86 4.945v.75h1.849v9.196c0 1.728 1.03 3.376 3.748 3.376 2.403 0 3.46-1.133 3.46-3.71v-.567h-1.003v.825c-.026.902-.183 1.855-1.188 1.855-1.214 0-1.214-1.133-1.214-2.68v-8.296h3.424c.791 0 1.161 1.288 1.426 1.932l4.304 10.77-.634 1.727c-.555 1.519-1.322 2.834-2.058 2.834a.47.47 0 0 1-.477-.463c0-.36.423-.67.423-1.289 0-.775-.555-1.52-1.69-1.52-1.11 0-1.796.72-1.796 1.856 0 1.314 1.293 2.318 2.588 2.318 2.377 0 3.115-1.263 4.066-3.58l5.204-12.808c.395-.979.713-1.777 1.689-1.777zm-26.98 4.717c-3.063-.697-3.749-.876-3.749-2.191 0-1.572 1.32-2.035 2.613-2.035 1.849 0 3.275 1.546 3.538 3.247h.845v-3.72h-.157c-.318.207-2.299-.12-2.747-.223-.476-.103-.976-.206-1.584-.206-2.905 0-5.203 1.365-5.203 4.431 0 2.655 1.928 3.298 3.884 3.738 2.535.564 3.853.927 3.853 2.576 0 1.314-1.293 2.085-2.64 2.085-2.482 0-3.724-1.543-4.25-3.734h-.847v4.636h.16a2.55 2.55 0 0 1 1.319-.411c.58 0 1.188.103 1.823.205.633.104 1.293.206 1.901.206 2.773 0 5.388-1.286 5.388-4.379 0-2.989-1.798-3.71-4.147-4.225" fill="#526478"/></svg>