<svg width="456" height="505" viewBox="0 0 456 505" fill="none" xmlns="http://www.w3.org/2000/svg">
<g filter="url(#filter0_i_382_2565)">
<path d="M178.913 452.915C177.92 454.012 176.741 454.55 175.355 454.55H171.507V443.438H175.355C176.741 443.438 177.94 443.976 178.913 445.052C179.926 446.128 180.423 447.432 180.423 448.984C180.423 450.536 179.926 451.819 178.913 452.915ZM177.858 446.253C177.154 445.487 176.327 445.114 175.355 445.114H173.038V452.895H175.355C176.348 452.895 177.175 452.522 177.858 451.777C178.561 451.012 178.892 450.101 178.892 449.025C178.892 447.949 178.54 447.039 177.858 446.273V446.253ZM191.634 449.274V454.571H190.104V449.274L186.339 443.438H188.221L190.848 447.535L193.496 443.438H195.379L191.614 449.274H191.634ZM208.969 454.55L203.777 446.522V454.55H202.246V443.438H203.694L208.886 451.446V443.438H210.417V454.55H208.949H208.969ZM224.628 454.55L223.822 452.108H219.788L218.981 454.55H217.368L221.05 443.438H222.581L226.263 454.55H224.649H224.628ZM220.326 450.453H223.263L221.774 446.025L220.305 450.453H220.326ZM241.777 454.55V446.232L239.026 454.55H237.495L234.723 446.211V454.55H233.192V443.438H235.406L238.24 451.964L241.094 443.438H243.308V454.55H241.777ZM250.9 454.55V443.438H252.43V454.55H250.9ZM268.813 453.102C267.758 454.24 266.497 454.819 265.049 454.819C263.601 454.819 262.318 454.261 261.263 453.122C260.229 451.964 259.712 450.577 259.712 448.984C259.712 447.391 260.229 446.025 261.284 444.887C262.339 443.728 263.58 443.169 265.049 443.169C266.517 443.169 267.8 443.79 268.917 445.011L267.821 446.149C267.014 445.28 266.083 444.845 265.049 444.845C264.014 444.845 263.104 445.239 262.359 446.046C261.615 446.873 261.242 447.867 261.242 448.984C261.242 450.101 261.615 451.095 262.359 451.922C263.125 452.729 264.014 453.143 265.049 453.143C266.083 453.143 267.014 452.709 267.821 451.84L268.813 452.874V453.102ZM282.983 454.033C282.197 454.55 281.287 454.819 280.294 454.819C279.301 454.819 278.391 454.55 277.626 454.012C276.695 453.391 276.219 452.481 276.219 451.322H277.75C277.75 452.026 278.039 452.522 278.639 452.812C279.136 453.04 279.694 453.164 280.315 453.164C280.935 453.164 281.535 453.04 282.011 452.812C282.59 452.522 282.88 452.067 282.88 451.488C282.88 450.743 282.363 450.246 281.328 449.998C281.059 449.956 280.811 449.894 280.563 449.832C280.315 449.77 280.046 449.708 279.798 449.646C279.281 449.543 278.784 449.439 278.288 449.315C277.067 448.818 276.447 447.867 276.447 446.48C276.447 445.446 276.881 444.618 277.729 443.976C278.474 443.438 279.343 443.149 280.294 443.149C281.246 443.149 282.115 443.418 282.859 443.976C283.707 444.597 284.142 445.487 284.142 446.646H282.611C282.611 445.984 282.342 445.508 281.825 445.218C281.391 444.97 280.873 444.825 280.294 444.825C279.715 444.825 279.219 444.949 278.763 445.197C278.246 445.487 277.977 445.921 277.977 446.459C277.977 447.225 278.494 447.742 279.529 447.991C279.777 448.053 280.046 448.115 280.294 448.177C280.542 448.239 280.811 448.301 281.08 448.363C281.328 448.425 281.577 448.487 281.825 448.549C282.073 448.611 282.321 448.674 282.59 448.715C283.79 449.212 284.39 450.122 284.39 451.467C284.39 452.543 283.914 453.391 282.983 454.033ZM101.03 391.687H111.353V438.7L81.0477 412.048V436.796H70.6841V389.824L101.03 416.704V391.666V391.687ZM137.272 437.21C131.149 437.21 125.895 434.975 121.53 430.526C117.207 426.036 115.035 420.615 115.035 414.241C115.035 407.868 117.207 402.426 121.53 398.019C125.853 393.528 131.108 391.293 137.272 391.293C143.436 391.293 148.649 393.528 153.014 398.019C157.379 402.467 159.551 407.889 159.551 414.241C159.551 420.594 157.379 426.036 153.014 430.526C148.649 434.975 143.416 437.21 137.272 437.21ZM128.873 422.705C131.149 425.001 133.942 426.16 137.251 426.16C140.561 426.16 143.354 425.001 145.629 422.705C147.946 420.325 149.104 417.511 149.104 414.241C149.104 410.972 147.946 408.137 145.629 405.84C143.354 403.502 140.561 402.323 137.251 402.323C133.942 402.323 131.149 403.502 128.873 405.84C126.557 408.137 125.398 410.951 125.398 414.241C125.398 417.531 126.557 420.325 128.873 422.705ZM177.465 438.534L199.805 391.687H188.511L177.465 415.98L166.315 391.687H155.02L177.444 438.534H177.465ZM196.206 436.796H184.808L206.839 389.597L229.634 436.796H218.133L214.513 429.595H199.702L196.227 436.796H196.206ZM202.391 421.608L211.596 421.546L207.004 410.496L202.412 421.608H202.391ZM230.876 391.687V436.817H261.222V425.995H241.26V391.687H230.896H230.876ZM261.222 391.687V414.759C261.222 421.049 263.083 426.429 266.786 430.878C270.551 435.327 275.061 437.562 280.294 437.562C285.528 437.562 289.996 435.327 293.699 430.878C297.443 426.471 299.304 421.091 299.304 414.759V391.687H289.623V414.759C289.623 418.049 288.693 420.842 286.852 423.098C285.031 425.395 282.839 426.553 280.294 426.553C277.75 426.553 275.495 425.395 273.675 423.098C271.854 420.801 270.944 418.007 270.944 414.759V391.687H261.222ZM334.222 391.562L324.562 405.426L314.902 391.562H302.635L318.418 414.179L302.635 436.796H314.902L324.562 422.974L334.222 436.796H346.427L330.644 414.179L346.427 391.562H334.222ZM349.861 436.796H385.068V426.202H359.418V419.187H376.69V409.296H359.418V402.323H385.068V391.666H349.861V436.796ZM254.23 405.716V405.654C252.968 397.294 250.755 384.299 249.307 375.878L249.245 375.547L248.914 375.609C248.686 375.65 247.031 375.919 246.845 375.96C248.252 384.817 250.403 397.108 251.996 406.047C250.775 397.418 248.976 385.086 247.61 376.519L248.686 376.333C250.175 384.713 252.472 397.46 254.106 405.633C254.002 405.633 251.996 406.047 251.996 406.047L254.189 405.737H254.251L254.23 405.716ZM298.374 355.227L298.084 355.413C297.898 355.558 296.491 356.489 296.326 356.613C301.311 364.062 308.406 374.326 313.578 381.775C308.861 374.45 302.076 364 297.257 356.799L298.187 356.178C303.028 363.173 310.454 373.808 315.315 380.554C315.233 380.616 313.578 381.796 313.578 381.796L315.419 380.616H315.46L315.419 380.533C310.785 373.457 303.359 362.572 298.539 355.516L298.353 355.227H298.374ZM155.186 354.378L155 354.668C150.097 361.641 142.526 372.505 137.83 379.499L137.789 379.54H137.83L139.672 380.782L137.934 379.52C142.899 372.815 150.387 362.324 155.331 355.351C155.62 355.537 155.972 355.785 156.241 355.972C151.318 363.172 144.491 373.477 139.651 380.782C144.884 373.415 152.124 363.152 157.172 355.806C157.006 355.703 155.662 354.709 155.455 354.585L155.165 354.378H155.186ZM334.988 316.284L334.801 316.573C334.677 316.78 333.767 318.229 333.684 318.373C341.255 323.174 351.888 329.672 359.645 334.389C352.364 329.609 341.917 322.802 334.595 318.167C334.781 317.877 335.008 317.504 335.194 317.215C342.455 321.643 353.543 328.368 360.721 332.548L359.645 334.389L360.845 332.548V332.506V332.486C353.75 327.892 342.559 320.96 335.277 316.47L334.988 316.284ZM92.9421 331.161L94.1212 333.003L93.0662 331.161C100.327 327.023 111.394 320.443 118.737 316.056L119.317 317.008C111.911 321.601 101.506 328.264 94.1212 333.003C101.878 328.389 112.656 321.912 120.227 317.215C120.103 317.049 119.275 315.601 119.13 315.414L118.944 315.125L118.655 315.311C111.373 319.718 100.058 326.609 92.9421 331.099H92.9008L92.9214 331.182L92.9421 331.161ZM344.586 298.943C344.71 298.633 344.875 298.219 345.02 297.909C352.922 301.075 364.961 305.875 372.739 308.814L371.974 310.821L372.863 308.814V308.772L372.843 308.751C365.086 305.399 352.902 300.392 344.979 297.164L344.669 297.04L344.544 297.35C344.462 297.557 343.8 299.15 343.738 299.316C351.991 302.792 363.555 307.469 371.974 310.841C364.01 307.324 352.591 302.316 344.607 298.964L344.586 298.943ZM109.491 296.998L109.181 297.122C101.258 300.268 88.9911 305.213 81.2339 308.482H81.1719L81.1925 308.545L82.0613 310.552C82.0613 310.552 81.4201 308.855 81.3166 308.545C89.1566 305.648 101.154 300.992 109.118 297.867C109.243 298.157 109.408 298.591 109.532 298.902C101.485 302.213 90.1081 307.096 82.0613 310.552C90.4598 307.262 102.168 302.668 110.401 299.274C110.318 299.088 109.718 297.515 109.615 297.309L109.491 296.998ZM353.895 235.273L353.77 233.472C358.487 233.224 363.824 232.583 368.747 232.169L383.413 230.7L383.558 232.19C374.891 232.997 362.583 234.3 353.874 235.252C362.748 234.59 375.201 233.638 383.951 232.81H384.282C384.282 232.624 384.075 230.493 384.034 230.265L383.992 229.913L383.641 229.955C374.849 230.907 362.314 232.272 353.667 233.39H353.626V233.431L353.853 235.211L353.895 235.273ZM346.386 201.917V201.958L347.047 203.613C347.047 203.613 346.53 202.041 346.51 201.958C354.722 199.185 366.265 195.026 374.58 192.026C374.725 192.398 374.953 193.081 375.098 193.453C366.865 196.33 355.26 200.592 347.047 203.613C355.487 200.82 367.361 196.868 375.635 193.971L375.946 193.867C375.884 193.722 375.18 191.674 375.098 191.467L374.973 191.136L374.642 191.26C366.347 194.322 354.515 198.689 346.406 201.875H346.365L346.386 201.917ZM79.848 190.018L79.7238 190.35C79.6618 190.536 78.8964 192.626 78.8551 192.75C87.2949 195.771 99.1065 199.765 107.712 202.682C99.5616 199.62 87.8948 195.254 79.7238 192.357L80.2617 190.929C88.536 193.971 100.141 198.233 108.27 201.047C108.188 201.296 107.712 202.703 107.712 202.703L108.374 201.047V201.006H108.332C100.182 197.737 88.4946 193.329 80.1582 190.205L79.8273 190.08L79.848 190.018ZM343.055 193.557C343.055 193.557 342.414 192.046 342.372 191.964C350.316 188.529 361.486 183.438 369.554 179.755L370.174 181.141C362.21 184.68 350.998 189.874 343.055 193.557C351.247 190.08 362.748 185.176 370.774 181.617L371.084 181.472C371.022 181.348 370.133 179.362 370.05 179.155L369.905 178.845L369.595 178.989C361.569 182.735 350.15 188.032 342.31 191.881H342.269V191.943L343.055 193.557ZM85.0401 177.727L84.8953 178.038C84.8126 178.224 83.8817 180.231 83.8403 180.355C92.0112 184.059 103.451 189.025 111.766 192.626C103.885 188.901 92.6111 183.604 84.7298 180.024C84.8953 179.652 85.2056 179.01 85.3711 178.638C93.3765 182.362 104.568 187.577 112.449 191.032C112.366 191.239 111.766 192.626 111.766 192.626L112.552 191.032V190.991L112.511 190.97C104.671 187.039 93.3558 181.679 85.3297 177.872L85.0194 177.727H85.0401ZM326.382 165.891C326.382 165.891 325.389 164.587 325.348 164.525C332.216 159.249 341.773 151.572 348.702 146.026C348.951 146.337 349.406 146.916 349.654 147.226C342.807 152.607 333.188 160.387 326.382 165.912C333.478 160.532 343.427 152.979 350.337 147.537L350.605 147.33C350.523 147.226 349.157 145.509 349.013 145.323L348.806 145.054L348.537 145.281C341.669 150.868 331.905 158.835 325.265 164.484H325.224L325.245 164.546L326.382 165.891ZM106.388 143.998L106.181 144.267C106.057 144.433 104.671 146.13 104.588 146.254C111.601 151.841 121.468 159.476 128.646 165.022C121.923 159.476 112.304 151.572 105.519 146.151L106.471 144.971C113.318 150.537 122.895 158.338 129.68 163.636L128.625 165.022L129.784 163.656V163.615V163.594C123.144 157.862 113.504 149.896 106.636 144.226L106.367 143.998H106.388ZM294.65 136.984C294.65 136.984 293.285 136.073 293.202 136.011C297.96 128.769 304.476 118.381 309.192 110.87L310.475 111.677C305.779 119.023 299.242 129.514 294.629 136.963C299.553 129.555 306.482 119.147 311.22 111.739L311.406 111.449C311.282 111.367 309.441 110.187 309.254 110.084L308.965 109.897L308.779 110.187C304.124 117.719 297.505 128.438 293.078 135.97V136.011V136.032L294.609 136.942L294.65 136.984ZM146.498 109.173L146.208 109.359C146.043 109.484 144.181 110.622 144.057 110.704C148.835 118.299 155.641 128.748 160.606 136.342C156.096 128.893 149.601 118.257 144.988 110.911L146.27 110.125C150.904 117.636 157.379 128.148 162.054 135.39L160.606 136.342L162.136 135.432H162.178L162.157 135.37C157.772 127.776 151.276 117.078 146.684 109.463L146.498 109.173ZM299.884 104.724C299.76 104.662 297.815 103.648 297.629 103.545L297.319 103.379L297.153 103.69C293.161 111.594 287.472 122.83 283.707 130.714V130.755L285.3 131.542C285.3 131.542 283.852 130.755 283.79 130.693C287.907 123.078 293.533 112.174 297.588 104.29L298.932 104.993C294.857 112.712 289.251 123.72 285.3 131.542C289.582 123.741 295.581 112.774 299.677 105.014L299.842 104.724H299.884ZM156.551 104.352L157.916 103.669C161.888 111.553 167.432 122.582 171.466 130.197L169.956 131.024L171.548 130.259H171.59V130.197C167.866 122.251 162.323 111.035 158.392 103.048L158.247 102.738L157.937 102.903C157.751 103.007 155.786 104 155.682 104.062C159.799 112.029 165.694 123.016 169.997 131.024C166.129 123.223 160.564 112.07 156.593 104.352H156.551ZM272.413 93.6952C269.848 102.158 266.166 114.222 263.807 122.623V122.665H263.828L265.524 123.161L263.89 122.603C266.641 114.388 270.303 102.676 272.951 94.2125L274.419 94.6678C271.73 102.965 268.089 114.781 265.524 123.161C268.462 114.615 272.516 102.717 275.267 94.2333C275.123 94.1919 273.033 93.509 272.827 93.4469L272.496 93.3435L272.392 93.6746L272.413 93.6952ZM181.147 94.2746L182.615 93.8401C183.257 95.9714 186.897 107.952 186.897 107.952C188.407 112.67 189.876 117.823 191.448 122.292L189.773 122.851L191.469 122.375H191.51V122.313C189.214 113.85 185.677 101.848 183.174 93.3021L183.07 92.971L182.74 93.0745C182.553 93.1365 180.423 93.778 180.299 93.8401C182.988 102.386 186.897 114.243 189.773 122.851C187.311 114.491 183.753 102.552 181.147 94.2746ZM319.825 452.46C322.928 450.805 325.989 449.046 328.989 447.225L325.389 441.307C295.912 459.247 262.111 468.745 227.628 468.745C193.145 468.745 159.323 459.268 129.866 441.307L126.267 447.225C130.59 449.853 134.997 452.295 139.485 454.592L126.97 478.802C126.577 479.567 126.867 480.54 127.653 480.933C127.653 480.933 127.674 480.933 127.694 480.933C128.48 481.326 129.432 481.016 129.825 480.229L141.988 455.833C146.208 457.902 150.49 459.806 154.855 461.565L144.45 486.872C144.119 487.679 144.512 488.61 145.319 488.941C145.319 488.941 145.319 488.941 145.339 488.941C146.146 489.272 147.077 488.858 147.387 488.051L157.461 462.579C161.847 464.276 166.274 465.807 170.762 467.173L162.529 493.411C162.261 494.238 162.736 495.128 163.564 495.397C163.564 495.397 163.584 495.397 163.605 495.397C164.432 495.645 165.322 495.169 165.57 494.342L173.431 467.959C177.92 469.262 182.471 470.401 187.042 471.373L181.085 498.356C180.898 499.204 181.436 500.053 182.284 500.239C182.284 500.239 182.305 500.239 182.326 500.239C183.174 500.425 184.022 499.867 184.188 499.018L189.752 471.932C194.344 472.842 198.957 473.587 203.612 474.167L199.992 501.688C199.888 502.557 200.488 503.343 201.357 503.446H201.398C202.267 503.55 203.053 502.929 203.156 502.081L206.383 474.498C211.017 475.015 215.692 475.346 220.367 475.532L219.126 503.364C219.085 504.233 219.767 504.978 220.636 504.998C220.636 504.998 220.657 504.998 220.677 504.998C221.546 505.04 222.27 504.336 222.312 503.467L223.16 475.594C224.67 475.636 226.18 475.656 227.669 475.656C230.855 475.656 234.02 475.574 237.185 475.429L238.302 503.405C238.343 504.274 239.067 504.957 239.936 504.916C239.936 504.916 239.957 504.916 239.977 504.916C240.846 504.874 241.508 504.129 241.467 503.26L239.936 475.284C244.611 474.994 249.245 474.539 253.878 473.898L257.436 501.812C257.54 502.681 258.346 503.281 259.195 503.177C259.195 503.177 259.215 503.177 259.236 503.177C260.105 503.053 260.705 502.267 260.58 501.398L256.629 473.504C261.242 472.801 265.835 471.952 270.386 470.939L276.364 498.584C276.55 499.432 277.398 499.97 278.246 499.784C278.246 499.784 278.267 499.784 278.288 499.784C279.136 499.598 279.674 498.749 279.467 497.901L273.095 470.318C277.626 469.221 282.114 467.98 286.562 466.572L294.96 493.721C295.209 494.549 296.098 495.025 296.926 494.756C296.926 494.756 296.926 494.756 296.946 494.756C297.774 494.487 298.229 493.597 297.96 492.769L289.189 465.724C293.595 464.255 297.96 462.641 302.263 460.841L312.999 487.265C313.329 488.072 314.24 488.465 315.046 488.134C315.046 488.134 315.046 488.134 315.067 488.134C315.874 487.803 316.246 486.872 315.895 486.085L304.786 459.785C309.047 457.944 313.267 455.957 317.405 453.805L330.416 479.319C330.809 480.085 331.761 480.395 332.526 480.002C332.526 480.002 332.547 480.002 332.567 480.002C333.333 479.609 333.622 478.657 333.229 477.891L319.846 452.543L319.825 452.46ZM454.387 270.719L425.84 270.595C425.778 265.835 425.571 261.118 425.199 256.42L453.993 254.724C454.862 254.682 455.524 253.917 455.462 253.068C455.462 253.068 455.462 253.047 455.462 253.027C455.4 252.158 454.655 251.516 453.787 251.578L424.971 253.668C424.537 248.992 423.937 244.377 423.192 239.763L452.09 235.687C452.939 235.562 453.559 234.776 453.414 233.907C453.414 233.907 453.414 233.886 453.414 233.866C453.29 233.017 452.483 232.417 451.635 232.562L422.758 237.032C421.951 232.417 421 227.865 419.882 223.354L448.657 216.898C449.505 216.712 450.042 215.863 449.836 215.015V214.973C449.649 214.125 448.781 213.608 447.953 213.815L419.2 220.705C418.021 216.194 416.697 211.725 415.228 207.338L443.713 198.42C444.54 198.151 444.995 197.281 444.747 196.454C444.747 196.454 444.747 196.433 444.747 196.412C444.478 195.585 443.588 195.129 442.761 195.398L414.38 204.731C412.849 200.344 411.153 196.019 409.312 191.757L437.259 180.376C438.065 180.045 438.438 179.134 438.107 178.327C438.107 178.327 438.107 178.307 438.107 178.286C437.776 177.479 436.845 177.106 436.059 177.458L408.216 189.232C406.333 185.011 404.306 180.852 402.134 176.755L429.357 162.973C430.122 162.58 430.432 161.628 430.039 160.863C430.039 160.863 430.039 160.863 430.039 160.842C429.646 160.076 428.695 159.766 427.929 160.18L400.851 174.354C398.638 170.299 396.259 166.326 393.756 162.435L420.027 146.295C420.772 145.84 421 144.868 420.544 144.143C420.544 144.143 420.544 144.143 420.544 144.123C420.089 143.378 419.117 143.171 418.372 143.626L392.288 160.159C389.743 156.31 387.075 152.544 384.282 148.882L409.374 130.445C410.077 129.928 410.222 128.955 409.705 128.252C409.705 128.252 409.705 128.252 409.705 128.231C409.188 127.527 408.195 127.403 407.512 127.92L382.606 146.73C379.773 143.109 376.794 139.591 373.712 136.156L397.438 115.505C398.1 114.926 398.162 113.932 397.583 113.291C397.583 113.291 397.583 113.291 397.562 113.27C396.983 112.608 395.99 112.567 395.349 113.146L371.891 134.149C370.609 132.763 369.285 131.376 367.961 130.01C366.078 128.086 364.134 126.203 362.19 124.361L384.303 101.6C384.903 100.979 384.903 99.9857 384.261 99.3856C384.261 99.3856 384.261 99.3857 384.241 99.365C383.62 98.7649 382.627 98.7856 382.027 99.427L360.204 122.499C356.811 119.375 353.315 116.374 349.757 113.519L370.029 88.8325C370.588 88.1704 370.485 87.1564 369.802 86.6184C369.802 86.6184 369.802 86.6184 369.781 86.6184C369.099 86.0804 368.106 86.1839 367.568 86.8667L347.606 111.863C343.965 109.028 340.263 106.338 336.477 103.793L354.701 77.3068C355.198 76.5826 355.011 75.6101 354.287 75.1135C354.287 75.1135 354.288 75.1135 354.267 75.1135C353.543 74.6168 352.571 74.8237 352.074 75.548L334.181 102.283C330.333 99.7788 326.403 97.4199 322.411 95.1851L338.421 67.1055C338.856 66.3399 338.587 65.3673 337.822 64.9535C337.822 64.9535 337.822 64.9535 337.801 64.9535C337.036 64.5189 336.063 64.8086 335.65 65.5743L320.032 93.9022C315.998 91.7295 311.902 89.7016 307.744 87.8186L321.356 58.3319C321.728 57.5456 321.356 56.5938 320.57 56.242H320.549C319.763 55.8695 318.811 56.242 318.46 57.0283L305.262 86.7426C301.063 84.9217 296.822 83.2663 292.519 81.735L303.586 51.0482C303.876 50.2205 303.462 49.31 302.635 49.0203C302.635 49.0203 302.635 49.0203 302.614 49.0203C301.787 48.7306 300.877 49.1652 300.608 49.9929L289.975 80.8453C285.652 79.3968 281.287 78.0932 276.881 76.9551L285.279 45.3164C285.507 44.468 284.99 43.5989 284.162 43.392C284.162 43.392 284.142 43.392 284.121 43.392C283.273 43.1644 282.425 43.6817 282.197 44.5301L274.254 76.3136C269.827 75.2376 265.38 74.3065 260.87 73.5408L266.517 41.2193C266.662 40.3709 266.083 39.5432 265.235 39.3983C265.235 39.3983 265.214 39.3983 265.193 39.3983C264.325 39.2535 263.518 39.8536 263.394 40.702L258.222 73.1063C253.733 72.4028 249.203 71.8648 244.652 71.4716L247.486 38.7362C247.569 37.8671 246.907 37.1015 246.038 37.0394C246.038 37.0394 246.018 37.0394 245.997 37.0394C245.128 36.9773 244.363 37.6188 244.301 38.4879L241.943 71.244C237.557 70.9336 233.151 70.7681 228.704 70.7474L226.821 0H226.201L224.318 70.7887C220.16 70.8715 216.002 71.0577 211.886 71.3888L209.135 38.6948C209.052 37.8257 208.287 37.1843 207.418 37.267C207.418 37.267 207.397 37.267 207.376 37.267C206.508 37.3498 205.866 38.1154 205.949 38.9845L209.176 71.6164C204.625 72.051 200.095 72.6304 195.627 73.3753L190.062 41.1365C189.918 40.2674 189.09 39.688 188.242 39.8536C188.242 39.8536 188.221 39.8536 188.201 39.8536C187.352 39.9984 186.773 40.8468 186.939 41.6952L192.958 73.8305C188.469 74.6375 184.001 75.6101 179.595 76.7275L171.3 45.2129C171.073 44.3645 170.225 43.8679 169.376 44.0955C169.376 44.0955 169.356 44.0955 169.335 44.0955C168.508 44.3231 168.011 45.1922 168.239 46.0199L176.989 77.3896C172.583 78.5691 168.218 79.9141 163.915 81.4039L152.973 50.8826C152.683 50.0756 151.773 49.6411 150.966 49.9308C150.966 49.9308 150.966 49.9308 150.945 49.9308C150.139 50.2205 149.725 51.1309 150.014 51.9586L161.371 82.2937C157.089 83.8457 152.848 85.5631 148.67 87.4048L135.224 58.1043C134.872 57.318 133.921 56.9662 133.135 57.3387C133.135 57.3387 133.135 57.3387 133.114 57.3387C132.328 57.7111 131.997 58.6423 132.369 59.4286L146.208 88.5014C142.05 90.4258 137.975 92.4744 133.962 94.6885L118.179 66.8365C117.744 66.0916 116.793 65.8226 116.028 66.2571C116.028 66.2571 116.007 66.2571 115.986 66.2571C115.242 66.6917 114.973 67.6642 115.428 68.4091L131.604 96.0128C127.632 98.2682 123.723 100.689 119.896 103.234L101.92 76.9965C101.423 76.2722 100.451 76.1067 99.7271 76.5826C99.7271 76.5826 99.7271 76.5826 99.7064 76.5826C99.0031 77.0792 98.8169 78.0725 99.3341 78.776L117.641 104.724C113.856 107.311 110.173 110.042 106.553 112.919L86.5915 88.4601C86.033 87.7979 85.0401 87.6944 84.3782 88.2324C84.3782 88.2324 84.3782 88.2324 84.3575 88.2531C83.6955 88.8118 83.6128 89.8051 84.1713 90.4672L104.443 114.615C100.886 117.512 97.431 120.533 94.0385 123.699L72.2563 101.186C71.6564 100.565 70.6634 100.544 70.0428 101.145C70.0428 101.145 70.0429 101.144 70.0222 101.165C69.4016 101.765 69.4016 102.779 70.0222 103.379L92.0526 125.582C90.5426 127.031 89.0532 128.479 87.5845 129.99C85.8055 131.79 84.0886 133.652 82.3923 135.515L59.038 115.07C58.376 114.491 57.3831 114.574 56.8246 115.215C56.8246 115.215 56.8246 115.215 56.8039 115.236C56.2454 115.898 56.3074 116.891 56.9694 117.45L80.5513 137.542C77.4691 141.019 74.5317 144.578 71.7184 148.24L47.0195 129.99C46.3162 129.472 45.3232 129.617 44.8268 130.321C44.8268 130.321 44.8268 130.321 44.8268 130.342C44.3096 131.045 44.4751 132.038 45.1784 132.535L70.0842 150.413C67.2916 154.138 64.6438 157.924 62.1409 161.815L36.3042 145.84C35.5595 145.385 34.5872 145.612 34.1322 146.357C34.1322 146.357 34.1322 146.357 34.1322 146.378C33.6771 147.123 33.9253 148.096 34.67 148.53L60.6515 164.111C58.1899 168.043 55.8523 172.078 53.6596 176.154L25.5061 161.794C23.5 161 22 163.5 24.0788 164.65L52.3771 178.576C50.2465 182.714 48.2399 186.915 46.3782 191.177L18.9074 179.941C18.1006 179.61 17.1697 180.003 16.8595 180.81C16.8595 180.81 16.8595 180.81 16.8595 180.831C16.5285 181.638 16.9422 182.548 17.7489 182.88L45.3232 193.743C43.5236 198.047 41.8894 202.392 40.4 206.821L12.412 197.944C11.5845 197.675 10.6951 198.151 10.4261 198.978C10.4261 198.978 10.4261 198.999 10.4261 199.02C10.1779 199.847 10.6537 200.737 11.4811 200.985L39.5105 209.428C38.0832 213.856 36.8006 218.346 35.6836 222.878L7.40601 216.422C6.55789 216.236 5.70977 216.753 5.5236 217.601C5.5236 217.601 5.5236 217.622 5.5236 217.643C5.33743 218.491 5.87525 219.34 6.72337 219.526L35.0423 225.589C33.9874 230.12 33.0565 234.714 32.3118 239.328L3.9101 235.231C3.06198 235.107 2.25523 235.707 2.13112 236.556V236.597C2.007 237.445 2.62757 238.252 3.47569 238.356L31.8774 242.039C31.1948 246.654 30.6569 251.309 30.2639 255.986L1.94494 254.227C1.07613 254.165 0.331447 254.827 0.290075 255.696C0.290075 255.696 0.290075 255.717 0.290075 255.737C0.248703 256.607 0.910638 257.331 1.77944 257.372L30.057 258.759C29.7467 263.414 29.5813 268.112 29.5606 272.829L1.53122 273.326C0.662417 273.326 -0.0202279 274.05 0.000457957 274.919C0.000457957 274.919 0.000457957 274.94 0.000457957 274.961C0.0211438 275.83 0.745163 276.513 1.61397 276.471L29.5813 275.602C29.6433 280.32 29.8502 285.017 30.2225 289.673L2.62757 292.404C1.75877 292.487 1.13819 293.253 1.22093 294.122C1.22093 294.122 1.22093 294.143 1.22093 294.163C1.30368 295.032 2.08973 295.653 2.95854 295.55L30.4501 292.467C30.8845 297.164 31.4844 301.82 32.2291 306.455L5.27536 311.359C4.42724 311.504 3.84804 312.331 4.01352 313.18C4.01352 313.18 4.01352 313.2 4.01352 313.221C4.17901 314.069 5.00644 314.628 5.85457 314.463L32.6842 309.207C33.5116 313.842 34.4838 318.456 35.6009 323.029L9.43323 330.023C8.60579 330.251 8.08865 331.12 8.31619 331.948C8.31619 331.948 8.31619 331.968 8.31619 331.989C8.54373 332.817 9.41255 333.313 10.2607 333.086L36.2628 325.74C37.4626 330.313 38.8072 334.824 40.3172 339.293L15.1218 348.315C14.3151 348.605 13.8807 349.515 14.1703 350.322C14.1703 350.322 14.1703 350.343 14.1703 350.364C14.4599 351.171 15.3701 351.585 16.1975 351.295L41.2274 341.942C42.7996 346.391 44.5165 350.778 46.3989 355.102L22.2792 366.049C21.4931 366.401 21.1414 367.332 21.5138 368.118C21.5138 368.118 21.5138 368.118 21.5138 368.139C21.8861 368.925 22.817 369.256 23.6031 368.884L47.5366 357.627C49.4811 361.931 51.5497 366.173 53.8044 370.332L30.9052 383.099C30.1398 383.513 29.8709 384.486 30.3053 385.231C30.3053 385.231 30.3053 385.251 30.3053 385.272C30.7397 386.017 31.6912 386.286 32.4359 385.851L55.1076 372.794C57.4451 377.016 59.9274 381.133 62.5752 385.189L40.9171 399.715C40.1931 400.191 40.007 401.184 40.5034 401.888C40.5034 401.888 40.5034 401.888 40.5034 401.909C40.9999 402.633 41.9721 402.798 42.6754 402.302L69.8153 383.555C69.4223 382.975 69.0293 382.416 68.6362 381.837C47.5159 349.64 36.3662 312.042 36.3662 273.078C36.3662 220.809 56.2661 171.685 92.425 134.728C127.694 98.6821 174.32 78.4449 224.049 77.5138L223.946 81.6316C223.946 96.1576 212.134 107.973 197.613 107.973V108.594C212.134 108.594 223.946 120.409 223.946 134.935L224.194 144.247C222.436 144.309 220.719 144.412 218.981 144.557L217.885 131.417C217.843 130.983 217.471 130.652 217.037 130.693C217.037 130.693 217.037 130.693 217.016 130.693C216.582 130.735 216.271 131.128 216.313 131.562L217.595 144.681C215.216 144.909 212.879 145.24 210.541 145.633L208.307 132.638C208.225 132.204 207.832 131.914 207.397 131.997C207.397 131.997 207.376 131.997 207.356 131.997C206.921 132.08 206.652 132.494 206.714 132.907L209.135 145.861C206.797 146.295 204.48 146.813 202.184 147.433L198.833 134.687C198.73 134.273 198.295 134.004 197.861 134.128C197.861 134.128 197.861 134.128 197.84 134.128C197.426 134.232 197.178 134.687 197.282 135.101L200.798 147.785C198.502 148.427 196.247 149.13 194.013 149.937L189.566 137.542C189.421 137.129 188.966 136.922 188.552 137.067C188.139 137.211 187.932 137.667 188.097 138.08L192.71 150.413C190.476 151.241 188.283 152.151 186.132 153.124L180.65 141.164C180.464 140.77 179.988 140.584 179.595 140.77C179.202 140.957 179.037 141.433 179.223 141.826L184.87 153.703C182.719 154.717 180.609 155.814 178.561 156.973L172.086 145.53C171.879 145.157 171.383 145.012 171.011 145.24C170.638 145.468 170.514 145.964 170.721 146.337L177.361 157.697C175.313 158.897 173.286 160.159 171.342 161.504L163.915 150.661C163.667 150.31 163.171 150.206 162.819 150.455C162.467 150.724 162.385 151.22 162.633 151.572L170.204 162.311C168.259 163.677 166.356 165.105 164.515 166.615L156.22 156.455C155.951 156.124 155.434 156.062 155.103 156.352C154.772 156.621 154.731 157.138 155 157.469L163.44 167.526C161.619 169.057 159.84 170.63 158.123 172.306L149.022 162.87C148.711 162.56 148.215 162.539 147.904 162.87C147.594 163.18 147.594 163.698 147.904 164.008L157.13 173.32C155.434 174.996 153.8 176.734 152.228 178.513L142.381 169.885C142.05 169.595 141.554 169.636 141.264 169.967C140.975 170.299 141.016 170.795 141.347 171.085L151.318 179.589C149.766 181.39 148.277 183.252 146.87 185.176L136.362 177.396C136.01 177.127 135.514 177.21 135.245 177.562C134.997 177.913 135.059 178.41 135.431 178.679L146.043 186.314C144.657 188.239 143.312 190.225 142.05 192.253L130.942 185.383C130.57 185.156 130.073 185.259 129.846 185.652C129.618 186.025 129.742 186.521 130.115 186.749L141.306 193.474C140.065 195.502 138.906 197.592 137.83 199.723L126.205 193.805C125.812 193.598 125.336 193.764 125.129 194.157C124.943 194.55 125.088 195.026 125.481 195.212L137.189 200.985C136.134 203.117 135.141 205.289 134.231 207.503L122.171 202.558C121.758 202.392 121.302 202.579 121.137 202.993C120.971 203.406 121.178 203.862 121.592 204.027L133.714 208.807C132.845 211.021 132.038 213.256 131.314 215.553L118.903 211.621C118.489 211.497 118.034 211.725 117.91 212.139C117.91 212.139 117.91 212.139 117.91 212.159C117.786 212.573 118.013 213.028 118.448 213.153L130.901 216.919C130.218 219.195 129.597 221.492 129.06 223.83L116.379 220.933C115.945 220.829 115.531 221.098 115.428 221.533C115.324 221.967 115.614 222.381 116.028 222.485L128.749 225.216C128.253 227.534 127.819 229.893 127.488 232.272L114.621 230.41C114.187 230.348 113.794 230.658 113.731 231.072C113.669 231.507 113.98 231.9 114.414 231.962L127.301 233.638C126.929 236.514 126.66 239.411 126.515 242.35C116.565 243.157 103.016 244.026 93.5834 245.702V245.909C99.272 246.881 104.961 247.502 110.649 248.019C115.283 248.35 120.806 248.847 126.412 249.281C126.453 252.178 126.639 255.055 126.908 257.89L113.959 259.152C113.525 259.193 113.214 259.586 113.256 260.021C113.256 260.021 113.256 260.021 113.256 260.042C113.297 260.476 113.69 260.786 114.124 260.745L127.053 259.297C127.322 261.573 127.653 263.849 128.046 266.084C128.17 266.767 128.315 267.47 128.439 268.153C128.894 270.367 129.391 272.56 129.991 274.733L117.393 278.106C116.979 278.209 116.731 278.644 116.834 279.079C116.834 279.079 116.834 279.079 116.834 279.099C116.958 279.513 117.393 279.761 117.807 279.637L130.363 276.099C131.004 278.396 131.749 280.672 132.556 282.907L120.268 287.293C119.854 287.438 119.648 287.894 119.792 288.307C119.792 288.307 119.792 288.307 119.792 288.328C119.937 288.742 120.392 288.949 120.806 288.783L133.031 284.21C133.859 286.445 134.79 288.638 135.762 290.811L123.847 296.212C123.454 296.398 123.268 296.853 123.454 297.267C123.64 297.66 124.116 297.826 124.509 297.64L136.341 292.073C137.355 294.225 138.451 296.357 139.609 298.426L128.17 304.799C127.798 305.006 127.653 305.503 127.86 305.875C128.067 306.248 128.563 306.393 128.936 306.165L140.292 299.647C141.492 301.716 142.754 303.744 144.078 305.71L133.176 313.014C132.804 313.262 132.721 313.759 132.969 314.111C132.969 314.111 132.969 314.111 132.969 314.131C133.218 314.483 133.714 314.587 134.066 314.338L144.864 306.889C146.229 308.855 147.636 310.759 149.125 312.621L138.844 320.794C138.492 321.063 138.451 321.56 138.72 321.912C138.989 322.243 139.485 322.305 139.837 322.015L149.994 313.676C151.504 315.518 153.076 317.297 154.731 319.015L145.153 328.037C144.843 328.326 144.822 328.844 145.112 329.154C145.422 329.465 145.919 329.485 146.229 329.154L155.662 319.987C157.317 321.705 159.034 323.34 160.812 324.933L152.021 334.741C151.731 335.072 151.752 335.569 152.083 335.859C152.414 336.148 152.91 336.107 153.2 335.776L161.867 325.864C163.667 327.437 165.508 328.927 167.411 330.354L159.468 340.866C159.199 341.218 159.282 341.714 159.633 341.983C159.985 342.252 160.482 342.17 160.75 341.818L168.549 331.182C170.473 332.589 172.438 333.913 174.444 335.196L167.411 346.35C167.184 346.722 167.287 347.219 167.66 347.446C168.032 347.674 168.528 347.55 168.756 347.177L175.624 335.921C177.651 337.162 179.719 338.321 181.829 339.418L175.768 351.13C175.562 351.523 175.727 351.999 176.12 352.206C176.513 352.412 176.989 352.247 177.196 351.854L183.091 340.038C185.201 341.094 187.373 342.087 189.587 342.997L184.56 355.185C184.394 355.599 184.581 356.054 184.994 356.22C184.994 356.22 184.994 356.22 185.015 356.22C185.429 356.385 185.884 356.178 186.049 355.785L190.91 343.515C193.124 344.384 195.358 345.191 197.633 345.894L193.662 358.475C193.538 358.889 193.765 359.344 194.179 359.469H194.199C194.613 359.613 195.068 359.365 195.192 358.951L198.957 346.308C201.212 346.991 203.508 347.591 205.846 348.108L203.012 360.979C202.908 361.414 203.198 361.828 203.612 361.931C204.046 362.014 204.46 361.745 204.542 361.31L207.19 348.398C209.507 348.874 211.845 349.267 214.203 349.598L212.486 362.655C212.424 363.09 212.734 363.483 213.168 363.545C213.603 363.607 213.996 363.276 214.058 362.841L215.589 349.743C218.898 350.136 222.27 350.364 225.683 350.405L226.676 389.328H227.359L228.352 350.405C232.199 350.364 236.006 350.095 239.729 349.64L241.384 362.717C241.446 363.152 241.839 363.462 242.273 363.4C242.708 363.338 243.018 362.945 242.956 362.51L241.115 349.474C243.473 349.143 245.811 348.729 248.128 348.233L250.9 361.103C250.982 361.538 251.417 361.807 251.851 361.703C252.285 361.6 252.554 361.186 252.451 360.751L249.493 347.922C251.81 347.384 254.106 346.784 256.361 346.081L260.249 358.662C260.374 359.075 260.829 359.324 261.242 359.179C261.656 359.055 261.884 358.599 261.76 358.186L257.705 345.646C259.96 344.922 262.194 344.094 264.387 343.204L269.331 355.413C269.496 355.827 269.951 356.013 270.365 355.847C270.779 355.682 270.965 355.206 270.779 354.813L265.649 342.687C267.841 341.777 269.993 340.763 272.103 339.687L278.081 351.399C278.288 351.792 278.763 351.937 279.136 351.75C279.529 351.543 279.674 351.067 279.467 350.674L273.323 339.024C275.433 337.928 277.502 336.748 279.508 335.486L286.438 346.66C286.665 347.032 287.162 347.157 287.534 346.908C287.907 346.681 288.01 346.184 287.782 345.812L280.687 334.741C282.694 333.458 284.638 332.113 286.541 330.685L294.402 341.218C294.671 341.57 295.167 341.632 295.519 341.383C295.871 341.114 295.933 340.618 295.664 340.266L287.658 329.858C289.541 328.409 291.382 326.899 293.161 325.305L301.869 335.134C302.159 335.465 302.656 335.486 302.987 335.196C303.318 334.907 303.338 334.41 303.049 334.079L294.216 324.374C295.995 322.781 297.691 321.105 299.346 319.387L309.399 328.989C309.585 328.802 309.772 328.595 309.958 328.409C310.247 328.099 310.247 327.582 309.916 327.292L300.318 318.373C301.952 316.635 303.504 314.835 305.014 312.973L315.191 321.208C315.522 321.477 316.019 321.436 316.308 321.084C316.308 321.084 316.308 321.084 316.308 321.063C316.577 320.732 316.515 320.215 316.184 319.946L305.883 311.855C307.351 309.993 308.758 308.069 310.102 306.082L320.921 313.428C321.273 313.676 321.769 313.573 322.018 313.221C322.266 312.869 322.162 312.373 321.79 312.124L310.889 304.923C312.212 302.937 313.454 300.909 314.633 298.819L326.693 305.627C326.961 305.151 327.21 304.696 327.479 304.22L315.336 297.578C316.474 295.488 317.57 293.356 318.563 291.184L330.416 296.646C330.809 296.833 331.285 296.646 331.45 296.253C331.45 296.253 331.45 296.233 331.45 296.212C331.637 295.819 331.45 295.363 331.057 295.177L319.142 289.88C320.114 287.707 321.004 285.493 321.831 283.238L334.077 287.707C334.491 287.852 334.926 287.645 335.07 287.231V287.19C335.236 286.776 335.008 286.342 334.615 286.197L322.307 281.913C323.093 279.679 323.817 277.402 324.438 275.085L336.994 278.52C337.408 278.644 337.842 278.396 337.946 277.961C337.946 277.961 337.946 277.94 337.946 277.92C338.049 277.506 337.801 277.071 337.387 276.968L324.789 273.719C325.431 271.278 325.969 268.794 326.444 266.27C326.941 263.642 327.313 260.973 327.603 258.262L340.531 259.586C340.966 259.628 341.338 259.317 341.38 258.883C341.421 258.448 341.111 258.076 340.676 258.034L327.748 256.855C327.975 254.31 328.12 251.765 328.161 249.178C338.153 248.371 351.971 247.502 361.548 245.784V245.578C355.86 244.605 350.171 243.984 344.482 243.467C339.663 243.115 333.871 242.598 328.058 242.163C327.892 238.873 327.582 235.604 327.127 232.396L340.014 230.576C340.449 230.513 340.738 230.12 340.676 229.686C340.614 229.251 340.2 228.962 339.787 229.024L326.92 231.01C326.548 228.651 326.113 226.292 325.576 223.995L338.277 221.14C338.69 221.036 338.959 220.622 338.877 220.188C338.877 220.188 338.877 220.188 338.877 220.167C338.773 219.753 338.359 219.484 337.925 219.588L325.265 222.63C324.686 220.312 324.065 218.015 323.341 215.739L335.794 211.849C336.208 211.725 336.436 211.27 336.312 210.856C336.312 210.856 336.312 210.856 336.312 210.835C336.187 210.421 335.732 210.193 335.319 210.338L322.928 214.415C322.183 212.139 321.356 209.904 320.466 207.71L332.567 202.786C332.96 202.62 333.167 202.165 333.002 201.751C332.836 201.358 332.381 201.172 331.967 201.337L319.928 206.427C318.997 204.234 317.984 202.061 316.908 199.951L328.575 194.053C328.968 193.846 329.113 193.371 328.927 192.998C328.72 192.605 328.244 192.46 327.851 192.667L316.267 198.73C315.15 196.619 313.971 194.55 312.73 192.522L323.9 185.652C324.272 185.425 324.396 184.928 324.148 184.556C323.921 184.183 323.424 184.08 323.052 184.307L311.985 191.322C310.702 189.315 309.358 187.328 307.951 185.425L318.542 177.665C318.894 177.417 318.977 176.899 318.708 176.568C318.708 176.568 318.708 176.568 318.708 176.548C318.439 176.196 317.942 176.134 317.591 176.382L307.103 184.287C305.676 182.383 304.166 180.541 302.594 178.741L312.523 170.112C312.854 169.823 312.895 169.326 312.605 168.995C312.316 168.664 311.819 168.643 311.488 168.933L301.683 177.686C300.091 175.906 298.436 174.189 296.739 172.554L305.924 163.118C306.234 162.808 306.214 162.311 305.924 162.001C305.614 161.691 305.097 161.711 304.807 162.022L295.767 171.581C294.03 169.926 292.251 168.374 290.41 166.864L298.787 156.704C299.056 156.373 299.015 155.876 298.684 155.586C298.684 155.586 298.684 155.586 298.663 155.586C298.332 155.317 297.815 155.359 297.546 155.71L289.334 165.995C287.472 164.505 285.569 163.098 283.604 161.753L291.092 150.91C291.34 150.558 291.258 150.061 290.885 149.813C290.513 149.565 290.037 149.648 289.789 150.02L282.445 160.987C280.48 159.663 278.453 158.4 276.385 157.221L282.921 145.778C283.149 145.406 283.004 144.909 282.632 144.702C282.239 144.495 281.763 144.619 281.556 145.012L275.185 156.559C273.116 155.421 270.986 154.345 268.834 153.331L274.357 141.35C274.543 140.957 274.357 140.481 273.964 140.295C273.571 140.108 273.095 140.295 272.909 140.688L267.552 152.751C265.4 151.779 263.187 150.889 260.932 150.082L265.421 137.687C265.566 137.273 265.359 136.818 264.945 136.673C264.531 136.529 264.076 136.756 263.932 137.17L259.629 149.627C257.395 148.861 255.119 148.158 252.823 147.558L256.216 134.811C256.319 134.376 256.071 133.942 255.657 133.839C255.223 133.735 254.788 133.983 254.685 134.418L251.479 147.206C249.183 146.626 246.866 146.15 244.528 145.716L246.783 132.721C246.866 132.287 246.576 131.873 246.142 131.811C245.707 131.749 245.294 132.038 245.232 132.473L243.142 145.488C240.805 145.116 238.447 144.826 236.068 144.619L237.205 131.48C237.247 131.045 236.916 130.652 236.481 130.631C236.481 130.631 236.481 130.631 236.461 130.631C236.026 130.59 235.654 130.921 235.613 131.355L234.661 144.495C232.696 144.35 230.689 144.267 228.704 144.226L228.952 134.935C228.952 120.409 240.763 108.594 255.285 108.594V107.973C240.763 107.973 228.952 96.1576 228.952 81.6316L228.848 77.4931C279.508 77.7828 327.106 98.082 362.976 134.749C399.135 171.706 419.034 220.829 419.034 273.098C419.034 312.642 407.554 350.736 385.833 383.265L385.958 383.348L413.222 401.867C413.946 402.364 414.939 402.178 415.414 401.453C415.414 401.453 415.414 401.453 415.414 401.433C415.89 400.709 415.704 399.715 414.959 399.239L393.053 384.817C395.99 380.306 398.741 375.691 401.286 370.974L424.392 383.989C425.137 384.424 426.109 384.155 426.523 383.389C426.523 383.389 426.523 383.368 426.523 383.348C426.936 382.582 426.667 381.63 425.902 381.216L402.589 368.47C404.782 364.269 406.83 360.027 408.712 355.703L433.08 366.918C433.866 367.29 434.797 366.918 435.169 366.152C435.169 366.152 435.169 366.111 435.19 366.09C435.542 365.304 435.19 364.373 434.404 364.021L409.829 353.137C411.67 348.791 413.346 344.384 414.876 339.914L440.382 349.184C441.189 349.474 442.099 349.06 442.389 348.233C442.389 348.233 442.389 348.233 442.389 348.212C442.678 347.405 442.244 346.494 441.437 346.205L415.766 337.266C417.235 332.796 418.538 328.264 419.676 323.712L446.174 330.954C447.002 331.182 447.87 330.685 448.098 329.858C448.098 329.858 448.098 329.837 448.098 329.816C448.326 328.989 447.808 328.12 446.981 327.913L420.338 321.022C421.413 316.47 422.344 311.855 423.13 307.22L450.456 312.311C451.304 312.476 452.132 311.897 452.277 311.048C452.277 311.048 452.277 311.028 452.277 311.007C452.421 310.159 451.863 309.352 450.994 309.186L423.544 304.447C424.247 299.833 424.785 295.157 425.178 290.48L453.187 293.377C454.056 293.46 454.821 292.839 454.904 291.97C454.904 291.97 454.904 291.949 454.904 291.929C454.986 291.059 454.345 290.294 453.497 290.232L425.406 287.687C425.737 282.927 425.902 278.147 425.923 273.347L454.407 273.823C455.276 273.823 455.979 273.14 456 272.291C456 272.291 456 272.271 456 272.25C456 271.381 455.317 270.677 454.449 270.677L454.387 270.719ZM309.441 200.447C312.709 216.112 304.828 233.245 289.81 244.005C288.899 243.405 287.948 242.846 286.976 242.308L270.013 232.79C270.82 229.851 271.399 227.12 271.71 224.637C273.24 212.49 272.578 201.503 269.786 191.922C284.514 188.177 299.532 191.136 309.441 200.447ZM321.438 249.902C321.149 261.552 318.832 272.685 314.84 282.948C313.888 270.843 307.662 258.883 297.546 249.84C298.953 250.254 300.401 250.399 301.932 250.42C304.786 250.482 307.62 250.461 310.475 250.42C314.136 250.357 317.798 250.171 321.438 249.923V249.902ZM294.629 314.752C292.644 313.635 289.417 311.504 289.106 309.372C289.024 308.731 289.479 308.151 290.265 307.593C295.229 306.786 299.966 305.213 304.248 302.916C301.352 307.137 298.125 311.09 294.609 314.752H294.629ZM143.705 291.929C141.182 276.637 149.042 260.228 163.584 249.799C164.495 250.399 165.446 250.958 166.418 251.496L184.725 261.78C183.526 265.297 182.553 268.587 181.891 271.526C179.223 283.465 180.03 293.729 182.409 302.192C168.528 305.358 154.545 302.585 144.905 294.184C144.491 293.439 144.098 292.673 143.705 291.929ZM138.927 213.98C140.458 223.892 145.464 233.514 153.159 241.356C150.304 241.294 147.47 241.315 144.615 241.356C140.809 241.418 137.024 241.625 133.218 241.894C133.755 232.127 135.741 222.754 138.927 213.98ZM152.124 189.418C154.503 186.211 157.068 183.149 159.82 180.252C161.64 181.431 163.605 183.066 163.833 184.721C163.895 185.238 163.626 185.714 163.088 186.19C159.261 186.811 155.579 187.887 152.124 189.418ZM146.084 198.606C155.889 190.805 169.728 188.446 183.339 191.839C180.278 200.841 178.871 212.139 181.871 225.589C182.346 227.741 183.008 230.079 183.774 232.541L166.398 242.287C165.425 242.825 164.495 243.384 163.564 243.984C149.518 233.907 141.699 218.264 143.457 203.448C144.284 201.792 145.153 200.178 146.084 198.585V198.606ZM187.228 224.389C184.456 212.014 185.78 201.648 188.594 193.433C191.386 194.447 194.158 195.709 196.847 197.219L211.203 205.289C208.39 210.463 205.349 216.194 202.308 222.133L188.676 229.81C188.076 227.906 187.601 226.085 187.228 224.389ZM309.441 293.356C299.697 302.502 285.052 305.523 270.592 302.109C272.682 293.294 273.054 283.383 271.689 272.519C271.275 269.229 270.406 265.525 269.165 261.511L286.976 251.516C287.927 250.978 288.879 250.42 289.81 249.819C304.807 260.58 312.709 277.692 309.42 293.377L309.441 293.356ZM226.821 308.42C224.628 304.634 221.07 298.385 216.933 290.811L226.697 285.328L236.978 291.101C232.758 298.55 229.076 304.675 226.821 308.4V308.42ZM187.663 300.681C185.532 292.984 184.787 283.631 187.228 272.726C187.787 270.222 188.594 267.47 189.587 264.511L199.992 270.346C203.301 276.968 206.694 283.424 209.838 289.28L196.847 296.564C193.848 298.24 190.786 299.626 187.663 300.681ZM192.917 255.531C193.993 257.931 195.13 260.331 196.268 262.752L191.2 259.917C191.738 258.49 192.296 257.02 192.896 255.551L192.917 255.531ZM190.207 234.445L198.461 229.81C196.537 233.721 194.675 237.694 192.896 241.584C191.903 239.121 191.014 236.742 190.207 234.445ZM189.835 248.557C188.573 251.516 187.415 254.392 186.36 257.186L168.756 247.295C168.528 247.171 168.28 247.026 168.053 246.902C168.28 246.778 168.528 246.633 168.756 246.509L185.367 237.197C186.649 240.798 188.159 244.626 189.835 248.578V248.557ZM208.659 275.209L221.774 282.576L214.658 286.59C212.713 282.989 210.686 279.161 208.659 275.209ZM231.62 282.576L246.121 274.443C243.846 278.789 241.549 282.989 239.357 286.921L231.62 282.576ZM254.83 269.539L264.283 264.242C265.235 267.491 265.917 270.512 266.248 273.181C267.51 283.32 267.179 292.508 265.359 300.557C262.359 299.523 259.422 298.178 256.547 296.564L244.177 289.611C247.631 283.424 251.313 276.554 254.85 269.519L254.83 269.539ZM261.429 255.737C261.925 257.041 262.38 258.303 262.794 259.566L258.553 261.945C259.546 259.876 260.498 257.807 261.429 255.737ZM284.617 247.295L267.634 256.834C266.704 254.165 265.649 251.392 264.49 248.578C266.062 244.75 267.448 241.025 268.586 237.507L284.617 246.509C284.845 246.633 285.093 246.778 285.321 246.902C285.093 247.026 284.845 247.171 284.617 247.295ZM261.429 241.398C259.836 237.839 258.119 234.217 256.361 230.638L263.725 234.776C263.063 236.907 262.297 239.121 261.429 241.418V241.398ZM258.553 248.557C256.05 254.455 253.154 260.6 250.113 266.663L226.718 279.803L204.749 267.47C201.605 261.159 198.544 254.703 195.854 248.537C199.205 240.839 203.136 232.748 207.087 224.968L226.718 213.939L247.755 225.754C251.644 233.286 255.45 241.129 258.574 248.537L258.553 248.557ZM211.1 217.208C212.796 214.001 214.451 210.897 216.044 207.979L221.794 211.207L211.1 217.208ZM231.6 211.207L237.929 207.669C239.75 210.897 241.653 214.353 243.577 217.953L231.6 211.228V211.207ZM226.697 208.455L218.34 203.758C221.877 197.323 224.897 192.046 226.842 188.694C228.848 191.984 231.951 197.178 235.571 203.468L226.718 208.435L226.697 208.455ZM224.773 168.188C223.76 171.499 220.657 173.878 217.037 173.796L210.996 173.671L210.934 174.189C217.016 175.265 221.898 178.079 224.566 181.679L224.401 181.969C223.884 182.817 219.416 190.37 213.52 201.068L199.205 193.019C196.309 191.405 193.351 190.039 190.352 188.963C194.179 180.417 199.35 174.809 201.874 172.43C206.59 167.94 215.258 164.277 224.649 163.594L224.773 168.209V168.188ZM168.135 315.58C169.501 317.194 170.473 321.374 171.031 324.747C167.06 321.726 163.336 318.394 159.902 314.773C162.736 314.214 166.646 313.821 168.135 315.58ZM199.205 300.764L212.134 293.501C218.588 305.296 223.656 313.883 224.38 315.083C221.691 318.125 216.892 320.463 210.976 321.395L211.017 321.891L217.057 321.767C217.057 321.767 217.182 321.767 217.223 321.767C221.505 321.767 225.042 324.767 225.146 328.513L225.27 333.562C215.671 333.003 206.714 329.278 201.895 324.685C199.123 322.036 193.041 315.435 189.173 305.234C192.586 304.075 195.958 302.585 199.226 300.764H199.205ZM228.91 328.513C228.993 324.767 232.53 321.767 236.833 321.767C236.895 321.767 236.957 321.767 236.999 321.767L243.039 321.891L243.08 321.395C236.937 320.443 232.013 317.96 229.386 314.752C230.689 312.642 235.675 304.592 241.798 293.812L254.168 300.764C257.374 302.585 260.705 304.054 264.076 305.192C260.974 314.814 255.45 322.512 247.652 327.788C247.445 327.933 247.238 328.058 247.031 328.202C246.824 328.347 246.618 328.471 246.411 328.595C241.012 331.989 234.847 333.479 228.766 333.603L228.89 328.492L228.91 328.513ZM269.31 306.724C269.31 306.724 269.351 306.724 269.372 306.724H269.31ZM266.248 223.933C266.021 225.796 265.628 227.844 265.069 229.996L252.451 222.919C249.183 216.567 245.831 210.442 242.729 204.958L256.526 197.219C259.153 195.75 261.842 194.509 264.552 193.515C267.076 202.248 267.676 212.49 266.248 223.933ZM254.189 193.019L240.37 200.778C234.599 190.701 230.089 183.48 229.2 182.073C231.786 178.265 236.792 175.306 243.101 174.189L243.039 173.671L236.999 173.796C234.909 173.837 232.882 173.071 231.372 171.602C229.841 170.133 228.972 168.188 228.931 166.057L228.869 163.47C234.909 163.615 241.032 165.125 246.411 168.478C254.023 173.237 259.608 180.19 263.021 188.942C260.022 190.039 257.064 191.384 254.168 192.998L254.189 193.019ZM224.318 151.158L224.504 158.069C213.541 158.835 203.508 163.284 198.088 168.436C195.254 171.126 189.338 177.541 185.077 187.308C183.877 186.997 182.677 186.708 181.457 186.501C179.264 185.57 176.12 183.707 174.32 180.334C172.707 177.334 172.086 172.947 171.838 169.574C186.649 158.525 204.729 151.779 224.297 151.158H224.318ZM170.887 170.319C170.287 173.485 169.397 177.065 168.156 178.513C166.77 180.127 163.357 179.921 160.606 179.445C163.812 176.154 167.246 173.113 170.887 170.319ZM144.615 250.399C147.47 250.461 150.304 250.461 153.159 250.399C153.903 250.399 154.648 250.357 155.372 250.275C146.208 258.676 140.313 269.498 138.823 280.589C135.369 270.967 133.362 260.642 133.114 249.861C137.231 250.13 141.202 250.337 144.636 250.399H144.615ZM150.883 303.806C151.028 303.868 151.173 303.951 151.318 304.013C151.318 304.013 151.318 304.013 151.359 304.013C154.876 305.648 158.62 306.806 162.529 307.489C163.398 308.069 163.915 308.689 163.812 309.352C163.564 311.152 161.226 312.952 159.323 314.131C156.282 310.903 153.448 307.427 150.883 303.785V303.806ZM171.797 325.305C172.004 321.829 172.603 316.987 174.341 313.759C177.258 308.317 183.67 306.827 183.877 306.786C188.139 318.291 194.986 325.719 198.088 328.678C203.653 333.976 214.079 338.507 225.394 339.107L225.518 343.804C205.473 343.432 186.939 336.624 171.817 325.326L171.797 325.305ZM228.517 343.804L228.641 339.149C235.654 339.045 242.853 337.307 249.327 333.272C258.036 327.809 264.428 319.822 268.317 309.538C268.648 308.648 268.958 307.738 269.269 306.827C270.427 307.137 275.95 308.814 278.598 313.759C280.522 317.36 281.06 322.967 281.184 326.443C266.207 337.162 248.086 343.556 228.517 343.825V343.804ZM281.659 326.092C282.197 322.574 283.211 317.422 284.783 315.58C286.521 313.531 291.547 314.4 294.319 315.063C290.43 319.098 286.19 322.802 281.659 326.092ZM310.475 241.377C307.62 241.315 304.786 241.315 301.932 241.377C301.332 241.377 300.732 241.418 300.153 241.48C308.468 233.038 313.66 222.506 314.757 211.787C318.439 221.181 320.714 231.3 321.314 241.894C317.446 241.646 313.723 241.46 310.475 241.398V241.377ZM302.987 190.205C298.891 188.197 294.423 186.811 289.768 186.108C289.293 185.673 289.044 185.218 289.106 184.742C289.396 182.776 292.126 180.831 294.112 179.652C297.319 182.942 300.277 186.48 302.987 190.205ZM293.657 179.176C290.823 179.796 286.396 180.396 284.783 178.513C283.356 176.837 282.383 172.368 281.804 168.954C286.024 172.037 289.975 175.451 293.657 179.196V179.176ZM281.142 168.478C280.956 171.954 280.377 177.024 278.577 180.355C276.653 183.956 273.199 185.818 271.006 186.687C270.075 186.894 269.144 187.101 268.214 187.349C264.304 177.168 257.953 169.285 249.307 163.863C242.873 159.828 235.716 158.111 228.724 157.987L228.579 151.137C248.086 151.427 266.186 157.8 281.122 168.498L281.142 168.478ZM227.256 237.28C232.758 237.28 237.226 241.832 237.226 247.461C237.226 253.089 232.758 257.641 227.256 257.641C221.753 257.641 217.285 253.089 217.285 247.461C217.285 241.832 221.753 237.28 227.256 237.28ZM347.854 264.925C359.935 264.925 369.74 255.117 369.74 243.053H370.257C370.257 255.117 380.062 264.925 392.122 264.925L409.291 266.994L392.163 269.063C380.083 269.063 370.257 278.872 370.257 290.935H369.74C369.74 278.872 359.935 269.063 347.875 269.063L327.934 267.242V266.746L347.854 264.925ZM360.493 161.587L366.078 155.545L365.934 155.4L359.335 160.346C357.556 161.96 355.239 162.767 352.86 162.642C350.461 162.518 348.247 161.463 346.654 159.683L346.489 159.828C349.778 163.47 349.654 168.353 346.158 172.844L344.358 174.975L346.779 173.568C354.019 169.926 357.949 172.554 359.666 174.458L359.749 174.396L359.831 174.334C358.218 172.554 357.411 170.236 357.535 167.857C357.659 165.457 358.714 163.242 360.493 161.628V161.587ZM314.736 142.695L316.887 140.915C323.424 136.115 327.748 138.06 329.733 139.653L329.857 139.488C325.969 136.404 325.327 130.735 328.409 126.844L332.919 119.954L332.754 119.83L327.065 125.789C323.983 129.679 318.315 130.321 314.426 127.238L314.302 127.403C318.149 130.466 318.832 135.287 316.143 140.295L314.715 142.695H314.736ZM138.906 127.424L138.782 127.258C134.893 130.341 129.225 129.679 126.143 125.789L120.475 119.83L120.31 119.954L124.819 126.844C127.901 130.735 127.239 136.404 123.371 139.488L123.495 139.653C125.502 138.06 129.825 136.115 136.341 140.915L138.492 142.695L137.065 140.315C134.355 135.287 135.038 130.466 138.885 127.424H138.906ZM314.343 374.243L314.405 374.326L314.467 374.408C318.356 371.325 324.024 371.967 327.106 375.878L332.774 381.837L332.94 381.713L328.43 374.822C325.348 370.932 326.01 365.262 329.878 362.179L329.816 362.096L329.754 362.014C327.748 363.607 323.424 365.552 316.908 360.751L314.757 358.972L316.184 361.352C318.894 366.38 318.211 371.201 314.364 374.243H314.343ZM138.513 358.972L136.362 360.751C129.825 365.552 125.502 363.607 123.516 362.014L123.454 362.096L123.392 362.179C127.281 365.262 127.922 370.932 124.84 374.822L120.33 381.713L120.496 381.837L126.184 375.878C129.267 371.987 134.934 371.346 138.823 374.429L138.885 374.346L138.948 374.264C135.1 371.201 134.417 366.38 137.106 361.372L138.534 358.972H138.513ZM376.339 236.018L379.069 236.597C386.888 238.728 388.047 243.322 388.047 245.888H388.254C388.254 240.922 392.288 236.887 397.252 236.887L405.444 236.142V235.935L397.252 235.19C392.288 235.19 388.254 231.155 388.254 226.189H388.15H388.047C388.047 231.114 384.696 234.631 379.09 235.645L376.339 236.018ZM173.907 361.289L173.617 360.545L173.059 360.896L173.017 360.938C173.017 360.938 173.017 360.958 172.996 360.979C170.473 364.331 167.453 366.256 164.515 366.421C164.164 366.421 163.874 366.649 163.771 366.98C163.646 367.311 163.729 367.663 163.998 367.89C166.377 370.063 167.391 373.332 166.625 376.416C166.522 376.892 166.811 377.243 167.122 377.367C167.225 377.409 167.349 377.43 167.473 377.43C167.722 377.43 167.97 377.326 168.156 377.057L168.404 376.705C170.431 373.87 172.728 372.505 175.458 372.505H175.499C175.851 372.505 176.161 372.298 176.306 371.967C176.451 371.636 176.368 371.284 176.12 371.036C173.845 368.739 173.059 365.283 173.886 361.269L173.907 361.289ZM278.35 372.091C278.494 372.401 278.805 372.608 279.136 372.588C279.239 372.588 279.322 372.588 279.425 372.588C282.549 372.588 285.404 374.202 286.976 376.85C287.162 377.14 287.431 377.243 287.679 377.243C287.782 377.243 287.907 377.223 288.01 377.181C288.341 377.057 288.631 376.726 288.548 376.25L288.486 375.836C287.948 372.381 288.651 369.773 290.616 367.87C290.885 367.621 290.968 367.249 290.823 366.918C290.699 366.587 290.389 366.38 290.037 366.38C286.81 366.338 283.831 364.414 281.618 360.979L280.894 360.627L280.729 361.289V361.352C281.411 366.69 279.88 369.649 278.474 371.18C278.246 371.429 278.184 371.801 278.329 372.112L278.35 372.091ZM93.0869 160.325L86.5088 155.4L86.364 155.545L91.9492 161.587C93.7282 163.201 94.7832 165.394 94.9073 167.795C95.0314 170.195 94.2246 172.492 92.6111 174.271L92.6939 174.334L92.7766 174.396C94.4936 172.492 98.4239 169.864 105.664 173.506L108.084 174.913L106.285 172.802C102.789 168.291 102.664 163.429 105.954 159.787L105.788 159.642C104.175 161.421 101.982 162.477 99.5823 162.601C97.1827 162.725 94.8866 161.918 93.0869 160.304V160.325ZM64.3749 226.209H64.2715H64.1681C64.1681 231.176 60.1343 235.211 55.1697 235.211L46.9781 235.956V236.162L55.1697 236.907C60.1343 236.907 64.1681 240.942 64.1681 245.909H64.3749C64.3749 243.363 65.5333 238.749 73.3526 236.618L76.0831 236.038L73.3319 235.666C67.726 234.673 64.3749 231.134 64.3749 226.209ZM42.1583 267.242L62.0995 269.063C74.1593 269.063 83.9644 278.872 83.9644 290.935H84.4816C84.4816 278.872 94.2867 269.063 106.388 269.063L123.516 266.994L106.347 264.925C94.2867 264.925 84.4816 255.117 84.4816 243.053H83.9644C83.9644 255.117 74.1594 264.925 62.0788 264.925L42.1583 266.746V267.242ZM333.415 226.313L360.493 222.402C361.486 222.257 362.479 222.299 363.451 222.485C366.327 223.106 368.168 223.954 368.788 224.947L371.415 229.231L372.201 224.285C372.512 222.361 373.629 220.685 375.284 219.671L379.566 217.043L374.622 216.256C372.698 215.946 371.022 214.829 370.009 213.173L367.382 208.89L366.596 213.835C366.409 214.973 365.086 216.339 362.541 217.974C361.755 218.47 360.907 218.843 360.018 219.091L333.374 226.065L333.436 226.334L333.415 226.313ZM354.143 351.026L359.025 352.185L356.067 348.129C354.929 346.556 354.515 344.57 354.97 342.687L356.129 337.804L352.074 340.763C351.123 341.445 349.095 341.528 346.199 340.99C345.227 340.804 344.296 340.452 343.427 339.956L319.887 326.009L319.742 326.237L341.711 342.832C342.455 343.391 343.096 344.053 343.614 344.818C345.351 347.301 346.055 349.06 345.786 350.178L344.627 355.061L348.682 352.102C350.254 350.964 352.24 350.571 354.122 351.005L354.143 351.026ZM133.424 326.009L109.884 339.956C109.015 340.473 108.084 340.825 107.112 340.99C104.216 341.528 102.189 341.445 101.237 340.763L97.1827 337.804L98.3411 342.687C98.7962 344.57 98.3825 346.556 97.2448 348.129L94.2867 352.185L99.1686 351.026C101.051 350.571 103.037 350.985 104.609 352.123L108.663 355.082L107.505 350.198C107.236 349.06 107.939 347.322 109.677 344.839C110.215 344.073 110.856 343.411 111.58 342.853L133.548 326.257L133.404 326.03L133.424 326.009ZM73.7456 217.043L78.0276 219.671C79.6825 220.685 80.7995 222.361 81.1098 224.285L81.8958 229.231L84.523 224.947C85.1228 223.954 86.9846 223.106 89.8599 222.485C90.8322 222.278 91.8251 222.257 92.818 222.402L119.896 226.313L119.958 226.044L93.3145 219.071C92.425 218.843 91.5768 218.47 90.7908 217.953C88.2464 216.318 86.9225 214.973 86.7364 213.815L85.9503 208.869L83.3232 213.153C82.3096 214.808 80.634 215.925 78.7102 216.236L73.7663 217.022L73.7456 217.043Z" fill="#A85026"/>
</g>
<defs>
<filter id="filter0_i_382_2565" x="0" y="0" width="456" height="506.4" filterUnits="userSpaceOnUse" color-interpolation-filters="sRGB">
<feFlood flood-opacity="0" result="BackgroundImageFix"/>
<feBlend mode="normal" in="SourceGraphic" in2="BackgroundImageFix" result="shape"/>
<feColorMatrix in="SourceAlpha" type="matrix" values="0 0 0 0 0 0 0 0 0 0 0 0 0 0 0 0 0 0 127 0" result="hardAlpha"/>
<feOffset dy="2"/>
<feGaussianBlur stdDeviation="0.7"/>
<feComposite in2="hardAlpha" operator="arithmetic" k2="-1" k3="1"/>
<feColorMatrix type="matrix" values="0 0 0 0 0.0156863 0 0 0 0 0.0666667 0 0 0 0 0.133333 0 0 0 0.35 0"/>
<feBlend mode="normal" in2="shape" result="effect1_innerShadow_382_2565"/>
</filter>
</defs>
</svg>
